<?xml version="1.0" encoding="UTF-8" standalone="no"?>
<!-- Created with Inkscape (http://www.inkscape.org/) -->
<svg xmlns:dc="http://purl.org/dc/elements/1.1/" xmlns:cc="http://creativecommons.org/ns#" xmlns:rdf="http://www.w3.org/1999/02/22-rdf-syntax-ns#" xmlns:svg="http://www.w3.org/2000/svg" xmlns="http://www.w3.org/2000/svg" xmlns:sodipodi="http://sodipodi.sourceforge.net/DTD/sodipodi-0.dtd" xmlns:inkscape="http://www.inkscape.org/namespaces/inkscape" width="581.43671" height="108.19672" id="svg3227" version="1.1" inkscape:version="0.48.5 r10040" sodipodi:docname="bazar-d--libre.svg">
  <defs id="defs3229"/>
  <sodipodi:namedview id="base" pagecolor="#ffffff" bordercolor="#666666" borderopacity="1.0" inkscape:pageopacity="0.0" inkscape:pageshadow="2" inkscape:zoom="1.7348794" inkscape:cx="316.11717" inkscape:cy="32.883201" inkscape:document-units="px" inkscape:current-layer="layer1" showgrid="false" fit-margin-top="0" fit-margin-left="0" fit-margin-right="0" fit-margin-bottom="0" showguides="true" inkscape:guide-bbox="true" inkscape:window-width="1920" inkscape:window-height="1041" inkscape:window-x="1920" inkscape:window-y="0" inkscape:window-maximized="1"/>
  <metadata id="metadata3232">
    <rdf:RDF>
      <cc:Work rdf:about="">
        <dc:format>image/svg+xml</dc:format>
        <dc:type rdf:resource="http://purl.org/dc/dcmitype/StillImage"/>
        <dc:title/>
      </cc:Work>
    </rdf:RDF>
  </metadata>
  <g inkscape:label="Calque 1" inkscape:groupmode="layer" id="layer1" transform="translate(22.14694,-355.40668)">
    <g id="g3345" transform="translate(-0.40758226,-8.5003198)">
      <g style="font-size:68.16756439px;font-style:normal;font-variant:normal;font-weight:normal;font-stretch:normal;text-indent:0;text-align:start;text-decoration:none;line-height:129.99999523%;letter-spacing:0px;word-spacing:0px;text-transform:none;direction:ltr;block-progression:tb;writing-mode:lr-tb;text-anchor:start;baseline-shift:baseline;color:#000000;fill:#39728f;fill-opacity:1;fill-rule:nonzero;stroke:none;stroke-width:7.68102551;marker:none;visibility:visible;display:inline;overflow:visible;enable-background:accumulate;font-family:Righteous;-inkscape-font-specification:Righteous" id="text3139">
        <path d="m 16.438466,421.30918 c -4.3e-5,1.97492 -0.377272,3.82778 -1.131688,5.55858 -0.754499,1.73083 -1.786332,3.25084 -3.0955,4.56004 -1.287055,1.28702 -2.7959706,2.30776 -4.5267521,3.06222 -1.7308492,0.75446 -3.5837092,1.13168 -5.5585856,1.13168 l -23.8653043,0 0,-47.7306 23.8653043,0 c 1.9748764,4e-5 3.8277364,0.37727 5.5585856,1.13168 1.7307815,0.75451 3.2396971,1.78634 4.5267521,3.0955 1.309168,1.28706 2.341001,2.79598 3.0955,4.52676 0.754416,1.73085 1.131645,3.58371 1.131688,5.55858 -4.3e-5,0.88763 -0.122087,1.79742 -0.366134,2.72937 -0.244132,0.932 -0.588076,1.8307 -1.031834,2.69608 -0.44384,0.86543 -0.976398,1.65318 -1.597677,2.36323 -0.621358,0.7101 -1.309246,1.29813 -2.063666,1.7641 0.77661,0.42163 1.475593,0.99857 2.096951,1.73082 0.621279,0.7101 1.153837,1.49784 1.597677,2.36323 0.443758,0.86543 0.776607,1.77521 0.998549,2.72936 0.244047,0.932 0.366091,1.84179 0.366134,2.72937 m -28.625051,4.75975 14.3125253,0 c 0.66567,0 1.2869883,-0.12204 1.8639569,-0.36614 0.5769083,-0.24408 1.0761819,-0.57693 1.4978224,-0.99855 0.4437672,-0.44379 0.7877113,-0.95415 1.0318333,-1.5311 0.2440567,-0.57693 0.3661013,-1.19825 0.3661344,-1.86396 -3.31e-5,-0.66569 -0.1220777,-1.287 -0.3661344,-1.86396 -0.244122,-0.57692 -0.5880661,-1.07619 -1.0318333,-1.49782 -0.4216405,-0.44378 -0.9209141,-0.78773 -1.4978224,-1.03183 -0.5769686,-0.24407 -1.1982869,-0.36612 -1.8639569,-0.36614 l -14.3125253,0 0,9.5195 m 0,-19.07228 14.3125253,0 c 0.66567,3e-5 1.2869883,-0.12201 1.8639569,-0.36613 0.5769083,-0.24406 1.0761819,-0.57691 1.4978224,-0.99855 0.4437672,-0.44377 0.7877113,-0.95414 1.0318333,-1.53111 0.2440567,-0.59909 0.3661013,-1.23151 0.3661344,-1.89724 -3.31e-5,-0.66566 -0.1220777,-1.28698 -0.3661344,-1.86396 -0.244122,-0.5769 -0.5880661,-1.07617 -1.0318333,-1.49782 -0.4216405,-0.44376 -0.9209141,-0.7877 -1.4978224,-1.03183 -0.5769686,-0.24405 -1.1982869,-0.3661 -1.8639569,-0.36614 l -14.3125253,0 0,9.55278" style="line-height:129.99999523%;marker:none;font-family:Righteous;-inkscape-font-specification:Righteous" id="path3396"/>
        <path d="m 57.21252,435.6217 -2.196806,0 -3.528204,-4.89288 c -0.86544,0.77665 -1.786322,1.50892 -2.76265,2.1968 -0.954197,0.6657 -1.963839,1.25374 -3.02893,1.76411 -1.065144,0.48818 -2.163546,0.8765 -3.295209,1.16497 -1.109521,0.28847 -2.241208,0.4327 -3.395065,0.4327 -2.507483,0 -4.870711,-0.42161 -7.089693,-1.26482 -2.196816,-0.84322 -4.127341,-2.06367 -5.79158,-3.66135 -1.642062,-1.61986 -2.940174,-3.59476 -3.894338,-5.92472 -0.954171,-2.32993 -1.431254,-4.98163 -1.431253,-7.9551 -10e-7,-2.77372 0.477082,-5.31447 1.431253,-7.62225 0.954164,-2.32992 2.252276,-4.32701 3.894338,-5.99129 1.664239,-1.66422 3.594764,-2.95123 5.79158,-3.86106 2.218982,-0.93194 4.58221,-1.39793 7.089693,-1.39796 1.153857,3e-5 2.296639,0.14427 3.428349,0.4327 1.131664,0.28851 2.230066,0.68793 3.29521,1.19826 1.06509,0.5104 2.074733,1.10953 3.02893,1.79739 0.976328,0.68792 1.886115,1.43128 2.729365,2.23009 l 3.528204,-4.22719 2.196806,0 0,35.5816 m -9.153359,-18.14029 c -2.9e-5,-1.24262 -0.244118,-2.44088 -0.732269,-3.59477 -0.466017,-1.17605 -1.109525,-2.20788 -1.930527,-3.0955 -0.821054,-0.90977 -1.786316,-1.63094 -2.89579,-2.16353 -1.08733,-0.55472 -2.252302,-0.83209 -3.494919,-0.83212 -1.242656,3e-5 -2.418723,0.21083 -3.528204,0.63242 -1.087323,0.42163 -2.04149,1.04295 -2.862505,1.86395 -0.798851,0.82106 -1.431264,1.84179 -1.897242,3.06222 -0.466,1.19828 -0.698994,2.57405 -0.698983,4.12733 -1.1e-5,1.55331 0.232983,2.94019 0.698983,4.16062 0.465978,1.19827 1.098391,2.20791 1.897242,3.02893 0.821015,0.82104 1.775182,1.44235 2.862505,1.86395 1.109481,0.42162 2.285548,0.63243 3.528204,0.63242 1.242617,1e-5 2.407589,-0.26627 3.494919,-0.79884 1.109474,-0.55474 2.074736,-1.27591 2.89579,-2.16352 0.821002,-0.90978 1.46451,-1.94161 1.930527,-3.0955 0.488151,-1.17605 0.73224,-2.38541 0.732269,-3.62806" style="line-height:129.99999523%;marker:none;font-family:Righteous;-inkscape-font-specification:Righteous" id="path3398"/>
        <path d="m 92.061855,435.6217 -29.723455,0 15.01151,-26.5281 -15.01151,0 0,-9.0535 29.723455,0 -15.01151,26.5281 15.01151,0 0,9.0535" style="line-height:129.99999523%;marker:none;font-family:Righteous;-inkscape-font-specification:Righteous" id="path3400"/>
        <path d="m 131.10509,435.6217 -2.1968,0 -3.52821,-4.89288 c -0.86544,0.77665 -1.78632,1.50892 -2.76265,2.1968 -0.95419,0.6657 -1.96384,1.25374 -3.02893,1.76411 -1.06514,0.48818 -2.16354,0.8765 -3.29521,1.16497 -1.10952,0.28847 -2.2412,0.4327 -3.39506,0.4327 -2.50748,0 -4.87071,-0.42161 -7.08969,-1.26482 -2.19682,-0.84322 -4.12734,-2.06367 -5.79158,-3.66135 -1.642065,-1.61986 -2.940177,-3.59476 -3.894341,-5.92472 -0.95417,-2.32993 -1.431254,-4.98163 -1.431253,-7.9551 -10e-7,-2.77372 0.477083,-5.31447 1.431253,-7.62225 0.954164,-2.32992 2.252276,-4.32701 3.894341,-5.99129 1.66424,-1.66422 3.59476,-2.95123 5.79158,-3.86106 2.21898,-0.93194 4.58221,-1.39793 7.08969,-1.39796 1.15386,3e-5 2.29664,0.14427 3.42835,0.4327 1.13166,0.28851 2.23007,0.68793 3.29521,1.19826 1.06509,0.5104 2.07473,1.10953 3.02893,1.79739 0.97633,0.68792 1.88611,1.43128 2.72936,2.23009 l 3.52821,-4.22719 2.1968,0 0,35.5816 m -9.15335,-18.14029 c -3e-5,-1.24262 -0.24412,-2.44088 -0.73227,-3.59477 -0.46602,-1.17605 -1.10953,-2.20788 -1.93053,-3.0955 -0.82105,-0.90977 -1.78632,-1.63094 -2.89579,-2.16353 -1.08733,-0.55472 -2.2523,-0.83209 -3.49492,-0.83212 -1.24266,3e-5 -2.41872,0.21083 -3.5282,0.63242 -1.08733,0.42163 -2.04149,1.04295 -2.86251,1.86395 -0.79885,0.82106 -1.43126,1.84179 -1.89724,3.06222 -0.466,1.19828 -0.69899,2.57405 -0.69898,4.12733 -1e-5,1.55331 0.23298,2.94019 0.69898,4.16062 0.46598,1.19827 1.09839,2.20791 1.89724,3.02893 0.82102,0.82104 1.77518,1.44235 2.86251,1.86395 1.10948,0.42162 2.28554,0.63243 3.5282,0.63242 1.24262,1e-5 2.40759,-0.26627 3.49492,-0.79884 1.10947,-0.55474 2.07474,-1.27591 2.89579,-2.16352 0.821,-0.90978 1.46451,-1.94161 1.93053,-3.0955 0.48815,-1.17605 0.73224,-2.38541 0.73227,-3.62806" style="line-height:129.99999523%;marker:none;font-family:Righteous;-inkscape-font-specification:Righteous" id="path3402"/>
        <path d="m 147.215,435.6217 -9.08679,0 0,-35.64817 2.19681,0 2.99564,4.22719 c 1.46453,-1.33137 3.12878,-2.3521 4.99275,-3.06222 1.86394,-0.73223 3.79446,-1.09836 5.79158,-1.0984 l 8.02167,0 0,9.0535 -8.02167,0 c -0.95419,3e-5 -1.85288,0.17755 -2.69609,0.53256 -0.84323,0.35507 -1.5755,0.84325 -2.1968,1.46454 -0.62133,0.62134 -1.10951,1.35361 -1.46454,2.19681 -0.35505,0.84324 -0.53257,1.74193 -0.53256,2.69608 l 0,19.63811" style="line-height:129.99999523%;marker:none;font-family:Righteous;-inkscape-font-specification:Righteous" id="path3404"/>
      </g>
      <g style="font-size:110.02017975px;font-style:normal;font-variant:normal;font-weight:normal;font-stretch:normal;text-indent:0;text-align:start;text-decoration:none;line-height:129.99999523%;letter-spacing:0px;word-spacing:0px;text-transform:none;direction:ltr;block-progression:tb;writing-mode:lr-tb;text-anchor:start;baseline-shift:baseline;color:#000000;fill:#254a5d;fill-opacity:1;fill-rule:nonzero;stroke:none;stroke-width:7.68102551;marker:none;visibility:visible;display:inline;overflow:visible;enable-background:accumulate;font-family:Righteous;-inkscape-font-specification:Righteous" id="text3143">
        <path d="m 364.57111,452.85425 -53.93567,0 0,-77.03562 15.41786,0 0,61.61775 38.51781,0 0,15.41787" style="line-height:129.99999523%;fill:#254a5d;marker:none;font-family:Righteous;-inkscape-font-specification:Righteous" id="path3423"/>
        <path d="m 388.26198,379.68653 c -2e-5,1.361 -0.26863,2.63239 -0.80581,3.81418 -0.50142,1.18192 -1.19979,2.22052 -2.09511,3.1158 -0.89537,0.8596 -1.95188,1.55797 -3.16953,2.09511 -1.18187,0.50146 -2.45326,0.75216 -3.81418,0.75209 -1.36093,7e-5 -2.65023,-0.25063 -3.86789,-0.75209 -1.18187,-0.53714 -2.22047,-1.23551 -3.11581,-2.09511 -0.85954,-0.89528 -1.55791,-1.93388 -2.09511,-3.1158 -0.5014,-1.18179 -0.75209,-2.45318 -0.75209,-3.81418 0,-1.32504 0.25069,-2.57852 0.75209,-3.76045 0.5372,-1.2176 1.23557,-2.2562 2.09511,-3.11581 0.89534,-0.89527 1.93394,-1.59364 3.11581,-2.09511 1.21766,-0.53713 2.50696,-0.80573 3.86789,-0.80581 1.36092,8e-5 2.63231,0.26868 3.81418,0.80581 1.21765,0.50147 2.27416,1.19984 3.16953,2.09511 0.89532,0.85961 1.59369,1.89821 2.09511,3.11581 0.53718,1.18193 0.80579,2.43541 0.80581,3.76045 m -2.52488,73.16772 -14.77322,0 0,-57.53497 14.77322,0 0,57.53497" style="line-height:129.99999523%;fill:#254a5d;marker:none;font-family:Righteous;-inkscape-font-specification:Righteous" id="path3425"/>
        <path d="m 454.55343,423.57642 c -6e-5,4.51257 -0.77006,8.63116 -2.30999,12.35578 -1.54005,3.72465 -3.63516,6.92999 -6.28533,9.61602 -2.65028,2.65023 -5.76608,4.70953 -9.34742,6.17789 -3.54561,1.46837 -7.35979,2.20255 -11.44253,2.20255 -4.04699,0 -7.86117,-0.75209 -11.44253,-2.25627 -3.54559,-1.50418 -6.66139,-3.59929 -9.34741,-6.28533 -2.65024,-2.68603 -4.74535,-5.87346 -6.28534,-9.5623 -1.54,-3.72462 -2.30999,-7.8074 -2.30999,-12.24834 l 0,-51.1422 14.7195,0 0,26.8604 c 0.78788,-1.00273 1.73695,-1.89808 2.8472,-2.68604 1.14602,-0.78785 2.36369,-1.4325 3.65301,-1.93395 1.32509,-0.50133 2.68601,-0.87738 4.08278,-1.12814 1.39671,-0.28645 2.75764,-0.4297 4.08278,-0.42976 4.08274,6e-5 7.89692,0.77006 11.44253,2.30999 3.58134,1.50424 6.69714,3.61726 9.34742,6.33906 2.65017,2.7219 4.74528,5.94514 6.28533,9.66974 1.53993,3.68886 2.30993,7.73583 2.30999,12.1409 m -14.77321,0 c -5e-5,-2.22043 -0.394,-4.27973 -1.18186,-6.17789 -0.75214,-1.93392 -1.79074,-3.59926 -3.11581,-4.99604 -1.32515,-1.3967 -2.88305,-2.48902 -4.6737,-3.27697 -1.75492,-0.78786 -3.63515,-1.18181 -5.64069,-1.18185 -2.00561,4e-5 -3.90374,0.44771 -5.6944,1.34302 -1.75491,0.85957 -3.2949,2.02352 -4.61999,3.49185 -1.32513,1.43259 -2.36374,3.09793 -3.11581,4.99603 -0.75211,1.86236 -1.12815,3.7963 -1.12813,5.80185 -2e-5,2.22048 0.37602,4.27978 1.12813,6.17789 0.75207,1.89815 1.79068,3.54559 3.11581,4.94231 1.32509,1.39676 2.86508,2.50699 4.61999,3.33069 1.79066,0.78792 3.68879,1.18187 5.6944,1.18186 2.00554,1e-5 3.88577,-0.39394 5.64069,-1.18186 1.79065,-0.8237 3.34855,-1.93393 4.6737,-3.33069 1.32507,-1.39672 2.36367,-3.04416 3.11581,-4.94231 0.78786,-1.89811 1.18181,-3.95741 1.18186,-6.17789" style="line-height:129.99999523%;fill:#254a5d;marker:none;font-family:Righteous;-inkscape-font-specification:Righteous" id="path3427"/>
        <path d="m 477.38477,452.85425 -14.66577,0 0,-57.53497 3.54557,0 4.83487,6.82254 c 2.3637,-2.14878 5.04974,-3.79621 8.05812,-4.94231 3.00834,-1.1818 6.12414,-1.77273 9.34742,-1.77279 l 12.94671,0 0,14.61206 -12.94671,0 c -1.54003,4e-5 -2.99049,0.28655 -4.35139,0.85953 -1.36095,0.57306 -2.54281,1.36097 -3.54557,2.36372 -1.00281,1.00282 -1.79071,2.18468 -2.36371,3.54557 -0.57305,1.36096 -0.85956,2.81142 -0.85954,4.35138 l 0,31.69527" style="line-height:129.99999523%;fill:#254a5d;marker:none;font-family:Righteous;-inkscape-font-specification:Righteous" id="path3429"/>
        <path d="m 530.19231,438.7794 c 0.57299,0.17908 1.14601,0.30443 1.71907,0.37605 0.57299,0.0358 1.14601,0.0537 1.71906,0.0537 1.43252,1e-5 2.81135,-0.19697 4.1365,-0.59093 1.32508,-0.39394 2.56065,-0.94905 3.70674,-1.66535 1.18181,-0.75207 2.22041,-1.64742 3.1158,-2.68604 0.93112,-1.07439 1.68321,-2.25625 2.25628,-3.54557 l 10.74415,10.79788 c -1.36098,1.93396 -2.93679,3.67093 -4.72743,5.21092 -1.75492,1.54 -3.67096,2.8472 -5.74812,3.92162 -2.04143,1.07441 -4.20817,1.88022 -6.50022,2.41743 -2.25631,0.57302 -4.5842,0.85953 -6.9837,0.85953 -4.04699,0 -7.86117,-0.75209 -11.44253,-2.25627 -3.54559,-1.50418 -6.66139,-3.59929 -9.34742,-6.28533 -2.65023,-2.68603 -4.74534,-5.87346 -6.28533,-9.5623 -1.54,-3.72462 -2.30999,-7.8074 -2.30999,-12.24834 0,-4.54833 0.76999,-8.70273 2.30999,-12.46323 1.53999,-3.76041 3.6351,-6.96574 6.28533,-9.61602 2.68603,-2.65017 5.80183,-4.70946 9.34742,-6.17789 3.58136,-1.46831 7.39554,-2.20249 11.44253,-2.20255 2.3995,6e-5 4.7453,0.28657 7.03742,0.85953 2.29205,0.57308 4.45879,1.3968 6.50022,2.47116 2.07716,1.07447 4.0111,2.39958 5.80185,3.97534 1.79064,1.54004 3.36644,3.27701 4.72743,5.21091 l -27.50505,33.14573 m 7.52091,-30.2448 c -0.6805,-0.25066 -1.36096,-0.41182 -2.04139,-0.48349 -0.64468,-0.0716 -1.32514,-0.1074 -2.04139,-0.10744 -2.00561,4e-5 -3.90374,0.37609 -5.6944,1.12813 -1.75491,0.71632 -3.2949,1.75492 -4.61999,3.11581 -1.28932,1.36097 -2.31001,3.0084 -3.06209,4.94231 -0.7521,1.89817 -1.12815,4.047 -1.12813,6.4465 -2e-5,0.53723 0.0179,1.14607 0.0537,1.8265 0.0716,0.68049 0.16114,1.37886 0.2686,2.09511 0.14324,0.68049 0.3044,1.34305 0.48349,1.98767 0.17905,0.64468 0.41184,1.2177 0.69837,1.71907 l 17.08321,-22.67017" style="line-height:129.99999523%;fill:#254a5d;marker:none;font-family:Righteous;-inkscape-font-specification:Righteous" id="path3431"/>
      </g>
      <g style="font-size:110.02017975px;font-style:normal;font-variant:normal;font-weight:normal;font-stretch:normal;text-indent:0;text-align:start;text-decoration:none;line-height:129.99999523%;letter-spacing:0px;word-spacing:0px;text-transform:none;direction:ltr;block-progression:tb;writing-mode:lr-tb;text-anchor:start;baseline-shift:baseline;color:#000000;fill:#39728f;fill-opacity:1;fill-rule:nonzero;stroke:none;stroke-width:7.68102551;marker:none;visibility:visible;display:inline;overflow:visible;enable-background:accumulate;font-family:Righteous;-inkscape-font-specification:Righteous" id="text3147">
        <path d="m 366.57111,450.85425 -53.93567,0 0,-77.03562 15.41786,0 0,61.61775 38.51781,0 0,15.41787" style="line-height:129.99999523%;marker:none;font-family:Righteous;-inkscape-font-specification:Righteous" id="path3412"/>
        <path d="m 390.26198,377.68653 c -2e-5,1.361 -0.26863,2.63239 -0.80581,3.81418 -0.50142,1.18192 -1.19979,2.22052 -2.09511,3.1158 -0.89537,0.8596 -1.95188,1.55797 -3.16953,2.09511 -1.18187,0.50146 -2.45326,0.75216 -3.81418,0.75209 -1.36093,7e-5 -2.65023,-0.25063 -3.86789,-0.75209 -1.18187,-0.53714 -2.22047,-1.23551 -3.11581,-2.09511 -0.85954,-0.89528 -1.55791,-1.93388 -2.09511,-3.1158 -0.5014,-1.18179 -0.75209,-2.45318 -0.75209,-3.81418 0,-1.32504 0.25069,-2.57852 0.75209,-3.76045 0.5372,-1.2176 1.23557,-2.2562 2.09511,-3.11581 0.89534,-0.89527 1.93394,-1.59364 3.11581,-2.09511 1.21766,-0.53713 2.50696,-0.80573 3.86789,-0.80581 1.36092,8e-5 2.63231,0.26868 3.81418,0.80581 1.21765,0.50147 2.27416,1.19984 3.16953,2.09511 0.89532,0.85961 1.59369,1.89821 2.09511,3.11581 0.53718,1.18193 0.80579,2.43541 0.80581,3.76045 m -2.52488,73.16772 -14.77322,0 0,-57.53497 14.77322,0 0,57.53497" style="line-height:129.99999523%;marker:none;font-family:Righteous;-inkscape-font-specification:Righteous" id="path3414"/>
        <path d="m 456.55343,421.57642 c -6e-5,4.51257 -0.77006,8.63116 -2.30999,12.35578 -1.54005,3.72465 -3.63516,6.92999 -6.28533,9.61602 -2.65028,2.65023 -5.76608,4.70953 -9.34742,6.17789 -3.54561,1.46837 -7.35979,2.20255 -11.44253,2.20255 -4.04699,0 -7.86117,-0.75209 -11.44253,-2.25627 -3.54559,-1.50418 -6.66139,-3.59929 -9.34741,-6.28533 -2.65024,-2.68603 -4.74535,-5.87346 -6.28534,-9.5623 -1.54,-3.72462 -2.30999,-7.8074 -2.30999,-12.24834 l 0,-51.1422 14.7195,0 0,26.8604 c 0.78788,-1.00273 1.73695,-1.89808 2.8472,-2.68604 1.14602,-0.78785 2.36369,-1.4325 3.65301,-1.93395 1.32509,-0.50133 2.68601,-0.87738 4.08278,-1.12814 1.39671,-0.28645 2.75764,-0.4297 4.08278,-0.42976 4.08274,6e-5 7.89692,0.77006 11.44253,2.30999 3.58134,1.50424 6.69714,3.61726 9.34742,6.33906 2.65017,2.7219 4.74528,5.94514 6.28533,9.66974 1.53993,3.68886 2.30993,7.73583 2.30999,12.1409 m -14.77321,0 c -5e-5,-2.22043 -0.394,-4.27973 -1.18186,-6.17789 -0.75214,-1.93392 -1.79074,-3.59926 -3.11581,-4.99604 -1.32515,-1.3967 -2.88305,-2.48902 -4.6737,-3.27697 -1.75492,-0.78786 -3.63515,-1.18181 -5.64069,-1.18185 -2.00561,4e-5 -3.90374,0.44771 -5.6944,1.34302 -1.75491,0.85957 -3.2949,2.02352 -4.61999,3.49185 -1.32513,1.43259 -2.36374,3.09793 -3.11581,4.99603 -0.75211,1.86236 -1.12815,3.7963 -1.12813,5.80185 -2e-5,2.22048 0.37602,4.27978 1.12813,6.17789 0.75207,1.89815 1.79068,3.54559 3.11581,4.94231 1.32509,1.39676 2.86508,2.50699 4.61999,3.33069 1.79066,0.78792 3.68879,1.18187 5.6944,1.18186 2.00554,1e-5 3.88577,-0.39394 5.64069,-1.18186 1.79065,-0.8237 3.34855,-1.93393 4.6737,-3.33069 1.32507,-1.39672 2.36367,-3.04416 3.11581,-4.94231 0.78786,-1.89811 1.18181,-3.95741 1.18186,-6.17789" style="line-height:129.99999523%;marker:none;font-family:Righteous;-inkscape-font-specification:Righteous" id="path3416"/>
        <path d="m 479.38477,450.85425 -14.66577,0 0,-57.53497 3.54557,0 4.83487,6.82254 c 2.3637,-2.14878 5.04974,-3.79621 8.05812,-4.94231 3.00834,-1.1818 6.12414,-1.77273 9.34742,-1.77279 l 12.94671,0 0,14.61206 -12.94671,0 c -1.54003,4e-5 -2.99049,0.28655 -4.35139,0.85953 -1.36095,0.57306 -2.54281,1.36097 -3.54557,2.36372 -1.00281,1.00282 -1.79071,2.18468 -2.36371,3.54557 -0.57305,1.36096 -0.85956,2.81142 -0.85954,4.35138 l 0,31.69527" style="line-height:129.99999523%;marker:none;font-family:Righteous;-inkscape-font-specification:Righteous" id="path3418"/>
        <path d="m 532.19231,436.7794 c 0.57299,0.17908 1.14601,0.30443 1.71907,0.37605 0.57299,0.0358 1.14601,0.0537 1.71906,0.0537 1.43252,1e-5 2.81135,-0.19697 4.1365,-0.59093 1.32508,-0.39394 2.56065,-0.94905 3.70674,-1.66535 1.18181,-0.75207 2.22041,-1.64742 3.1158,-2.68604 0.93112,-1.07439 1.68321,-2.25625 2.25628,-3.54557 l 10.74415,10.79788 c -1.36098,1.93396 -2.93679,3.67093 -4.72743,5.21092 -1.75492,1.54 -3.67096,2.8472 -5.74812,3.92162 -2.04143,1.07441 -4.20817,1.88022 -6.50022,2.41743 -2.25631,0.57302 -4.5842,0.85953 -6.9837,0.85953 -4.04699,0 -7.86117,-0.75209 -11.44253,-2.25627 -3.54559,-1.50418 -6.66139,-3.59929 -9.34742,-6.28533 -2.65023,-2.68603 -4.74534,-5.87346 -6.28533,-9.5623 -1.54,-3.72462 -2.30999,-7.8074 -2.30999,-12.24834 0,-4.54833 0.76999,-8.70273 2.30999,-12.46323 1.53999,-3.76041 3.6351,-6.96574 6.28533,-9.61602 2.68603,-2.65017 5.80183,-4.70946 9.34742,-6.17789 3.58136,-1.46831 7.39554,-2.20249 11.44253,-2.20255 2.3995,6e-5 4.7453,0.28657 7.03742,0.85953 2.29205,0.57308 4.45879,1.3968 6.50022,2.47116 2.07716,1.07447 4.0111,2.39958 5.80185,3.97534 1.79064,1.54004 3.36644,3.27701 4.72743,5.21091 l -27.50505,33.14573 m 7.52091,-30.2448 c -0.6805,-0.25066 -1.36096,-0.41182 -2.04139,-0.48349 -0.64468,-0.0716 -1.32514,-0.1074 -2.04139,-0.10744 -2.00561,4e-5 -3.90374,0.37609 -5.6944,1.12813 -1.75491,0.71632 -3.2949,1.75492 -4.61999,3.11581 -1.28932,1.36097 -2.31001,3.0084 -3.06209,4.94231 -0.7521,1.89817 -1.12815,4.047 -1.12813,6.4465 -2e-5,0.53723 0.0179,1.14607 0.0537,1.8265 0.0716,0.68049 0.16114,1.37886 0.2686,2.09511 0.14324,0.68049 0.3044,1.34305 0.48349,1.98767 0.17905,0.64468 0.41184,1.2177 0.69837,1.71907 l 17.08321,-22.67017" style="line-height:129.99999523%;marker:none;font-family:Righteous;-inkscape-font-specification:Righteous" id="path3420"/>
      </g>
      <g id="g3151" style="fill:#39728f;fill-opacity:1" transform="matrix(0.52767429,0,0,0.52767429,-236.44145,293.83543)">
        <path id="path3153" transform="matrix(1.8951084,0,0,1.8951084,388.39563,3429.9649)" d="m 264.8125,-1739.8438 c -1.4701,1e-4 -2.6875,1.1669 -2.6875,2.5938 0,1.0905 0.70309,1.9958 1.6875,2.375 -3.62359,3.6752 -11.38891,13.4956 -18.53125,11.9375 0.10594,-0.2747 0.1846,-0.5647 0.1875,-0.875 0.0134,-1.4268 -1.15496,-2.58 -2.625,-2.5937 -1.47004,-0.014 -2.67415,1.1044 -2.6875,2.5312 -0.0134,1.4268 1.15496,2.6112 2.625,2.625 0.65441,0.01 1.25166,-0.2491 1.71875,-0.625 0.69851,1.1321 1.39795,2.2091 2.0625,3.2188 3.38494,9.1639 -8.43031,16.8502 -15.59375,14.9062 -0.87358,-0.5964 -1.77089,-1.1831 -2.65625,-1.7812 0.50233,-0.807 0.54301,-1.8367 0.0312,-2.6876 -0.73545,-1.2227 -2.33398,-1.6014 -3.59375,-0.8437 -1.25977,0.7577 -1.7042,2.371 -0.96875,3.5937 0.73545,1.2228 2.36523,1.6015 3.625,0.8438 0.10084,-0.061 0.19127,-0.1479 0.28125,-0.2188 2.86065,8.1897 -8.24247,15.586 -11.84375,19.0938 -0.18889,-1.2885 -1.26107,-2.2598 -2.5625,-2.25 -1.42683,0.011 -2.57356,1.2174 -2.5625,2.6875 0.0111,1.4701 1.16692,2.6357 2.59375,2.625 1.07012,-0.01 1.98999,-0.6667 2.375,-1.625 3.50356,3.4696 13.94552,11.3266 12.4375,18.6563 -0.40264,-0.2602 -0.89589,-0.4101 -1.40625,-0.4063 -1.42683,0.011 -2.57356,1.1862 -2.5625,2.6563 0.0111,1.47 1.19817,2.6669 2.625,2.6562 1.42682,-0.011 2.57356,-1.2174 2.5625,-2.6875 -0.004,-0.4848 -0.15223,-0.9226 -0.375,-1.3125 1.04521,-0.6536 2.05601,-1.3054 3,-1.9375 6.02507,-0.6629 17.45861,-0.012 13.28125,15.9375 -0.27094,0.4299 -0.54015,0.9188 -0.8125,1.375 -0.76777,-1.1319 -2.25984,-1.5394 -3.4375,-0.875 -1.24273,0.7011 -1.65985,2.3134 -0.9375,3.5938 0.72235,1.2803 2.28852,1.7636 3.53125,1.0624 0.97133,-0.5479 1.43602,-1.6526 1.25,-2.7187 0.31234,-0.09 0.6224,-0.1734 0.9375,-0.2187 0.77013,0.1447 2.00652,0.2297 3.5,0.2812 5.82568,1.6648 11.46266,8.615 14.4375,11.6562 -0.94088,0.3984 -1.59375,1.3151 -1.59375,2.375 0,1.4269 1.2174,2.5938 2.6875,2.5938 1.4701,0 2.65625,-1.1669 2.65625,-2.5938 0,-1.1272 -0.74398,-2.0846 -1.78125,-2.4374 3.43129,-3.7262 10.2723,-13.8631 18.03125,-12.0313 -0.14459,0.3144 -0.21532,0.6649 -0.21875,1.0313 -0.0134,1.4268 1.15496,2.6112 2.625,2.625 1.47004,0.014 2.67415,-1.1357 2.6875,-2.5626 0.0134,-1.4268 -1.15496,-2.6112 -2.625,-2.625 -0.55126,-0.01 -1.07258,0.163 -1.5,0.4376 -0.61728,-0.8938 -1.22555,-1.8052 -1.84375,-2.6876 -2.69675,-12.8948 2.17556,-18.4068 17.78125,-13.4687 l 0,-0.25 c 0.0499,0.034 0.10632,0.06 0.15625,0.094 -0.61654,0.8286 -0.70784,1.958 -0.15625,2.875 0.73545,1.2228 2.33398,1.6015 3.59375,0.8438 1.25977,-0.7577 1.7042,-2.371 0.96875,-3.5938 -0.65961,-1.0966 -2.03454,-1.5349 -3.21875,-1.0624 -1.89752,-7.7817 8.27589,-14.7124 11.9375,-18.1563 0.37044,1.0153 1.32358,1.7271 2.4375,1.7187 1.42682,-0.011 2.57356,-1.1861 2.5625,-2.6562 -0.0111,-1.4701 -1.19818,-2.667 -2.625,-2.6562 -1.08028,0.01 -1.96524,0.7147 -2.34375,1.6874 -3.7338,-3.6093 -13.46288,-11.2137 -12.03125,-18.3124 0.11118,0.014 0.2287,0.032 0.34375,0.031 1.42682,-0.011 2.57356,-1.2174 2.5625,-2.6875 -0.0111,-1.4701 -1.19818,-2.6357 -2.625,-2.625 -1.42683,0.011 -2.57356,1.1862 -2.5625,2.6563 0.006,0.7988 0.36174,1.5161 0.90625,2 -0.10069,0.063 -0.21218,0.124 -0.3125,0.1874 l 0,-0.25 c -12.35804,1.6693 -21.4612,0.3059 -15.8125,-15.0312 0.13634,-0.1961 0.27249,-0.3956 0.40625,-0.5938 0.81387,0.8597 2.10743,1.0918 3.15625,0.5 1.24274,-0.7011 1.6911,-2.3133 0.96875,-3.5937 -0.72235,-1.2804 -2.31976,-1.7324 -3.5625,-1.0313 -1.05072,0.5928 -1.50582,1.8259 -1.1875,2.9688 -8.01195,2.4006 -15.08638,-8.2081 -18.5625,-11.9375 1.06658,-0.3369 1.84375,-1.2899 1.84375,-2.4375 0,-1.4269 -1.18615,-2.5938 -2.65625,-2.5938 z" style="color:#000000;fill:#39728f;fill-opacity:1;fill-rule:nonzero;stroke:none;stroke-width:2;marker:none;visibility:visible;display:inline;overflow:visible;enable-background:accumulate" inkscape:connector-curvature="0"/>
      </g>
      <g style="font-size:56.03106308px;font-style:normal;font-variant:normal;font-weight:normal;font-stretch:normal;text-indent:0;text-align:start;text-decoration:none;line-height:129.99999523%;letter-spacing:0px;word-spacing:0px;text-transform:none;direction:ltr;block-progression:tb;writing-mode:lr-tb;text-anchor:start;baseline-shift:baseline;color:#000000;fill:#ffffff;fill-opacity:1;fill-rule:nonzero;stroke:none;stroke-width:2;marker:none;visibility:visible;display:inline;overflow:visible;enable-background:accumulate;font-family:Righteous;-inkscape-font-specification:Righteous" id="text3187">
        <path d="m 230.62015,434.72998 -1.80569,0 -2.90004,-4.02176 c -0.71136,0.63838 -1.46829,1.24027 -2.27079,1.80569 -0.78432,0.54718 -1.6142,1.03052 -2.48966,1.45002 -0.87551,0.40127 -1.77835,0.72045 -2.70854,0.95756 -0.91198,0.23711 -1.84218,0.35567 -2.79061,0.35567 -2.06105,0 -4.00353,-0.38303 -5.82745,-1.14908 -1.80569,-0.78428 -3.39251,-1.8604 -4.76045,-3.22835 -1.34971,-1.38618 -2.41671,-3.01859 -3.20099,-4.89724 -0.78429,-1.89688 -1.17644,-3.95791 -1.17644,-6.18312 0,-2.20694 0.39215,-4.25885 1.17644,-6.15576 0.78428,-1.89686 1.85128,-3.53839 3.20099,-4.9246 1.36794,-1.38616 2.95476,-2.47139 4.76045,-3.25571 1.82392,-0.78426 3.7664,-1.17641 5.82745,-1.17644 0.6566,3e-5 1.33145,0.0548 2.02456,0.16416 0.71132,0.10946 1.39529,0.29186 2.05192,0.54718 0.67483,0.23714 1.30409,0.55632 1.88777,0.95756 0.58363,0.40129 1.07609,0.89375 1.47738,1.47738 l 0,-13.67946 7.5237,0 0,40.9563 m -7.5237,-14.91061 c -3e-5,-1.02138 -0.20066,-2.0063 -0.6019,-2.95476 -0.38305,-0.96667 -0.91198,-1.81479 -1.58682,-2.54438 -0.67487,-0.74779 -1.46828,-1.34057 -2.38022,-1.77833 -0.89374,-0.45596 -1.8513,-0.68395 -2.87269,-0.68397 -1.02141,2e-5 -1.98809,0.18241 -2.90004,0.54717 -0.89374,0.36481 -1.67803,0.89375 -2.35287,1.58682 -0.65662,0.67487 -1.17644,1.50476 -1.55946,2.48966 -0.38303,0.98494 -0.57454,2.09754 -0.57454,3.33779 0,1.07613 0.19151,2.09753 0.57454,3.0642 0.38302,0.96669 0.90284,1.81482 1.55946,2.54438 0.67484,0.72958 1.45913,1.30411 2.35287,1.72361 0.91195,0.41951 1.87863,0.62926 2.90004,0.62926 1.02139,0 1.97895,-0.21887 2.87269,-0.65662 0.91194,-0.45597 1.70535,-1.04875 2.38022,-1.77833 0.67484,-0.7478 1.20377,-1.59592 1.58682,-2.54438 0.40124,-0.96667 0.60187,-1.96071 0.6019,-2.98212" style="marker:none" id="path3407"/>
        <path d="m 257.86963,431.31012 c -0.60192,0.54718 -1.24941,1.067 -1.94248,1.55945 -0.67488,0.47423 -1.38621,0.89373 -2.134,1.25851 -0.74783,0.34655 -1.523,0.62014 -2.32551,0.82077 -0.7843,0.21887 -1.58683,0.32831 -2.40758,0.32831 -1.8057,0 -3.50195,-0.31919 -5.08876,-0.95756 -1.58682,-0.63838 -2.98213,-1.54122 -4.18591,-2.70854 -1.18556,-1.18554 -2.12488,-2.61733 -2.81797,-4.29535 -0.67486,-1.69624 -1.01228,-3.59312 -1.01228,-5.69065 l 0,-16.19648 7.44162,0 0,16.19648 c -1e-5,0.98493 0.14591,1.86954 0.43775,2.65381 0.31005,0.76606 0.72044,1.41356 1.23115,1.94249 0.51069,0.52894 1.10346,0.93021 1.77833,1.20379 0.69308,0.2736 1.43177,0.41039 2.21607,0.41038 0.76603,10e-6 1.48648,-0.17326 2.16135,-0.51982 0.69308,-0.36477 1.29497,-0.83899 1.80569,-1.42266 0.51068,-0.58365 0.91195,-1.24026 1.2038,-1.96984 0.2918,-0.7478 0.43772,-1.51385 0.43774,-2.29815 l 0,-16.19648 7.46898,0 0,29.3014 -1.80569,0 -2.4623,-3.41986" style="marker:none" id="path3409"/>
      </g>
    </g>
  </g>
</svg>