<?xml version="1.0" encoding="UTF-8" standalone="no"?>
<!-- Created with Inkscape (http://www.inkscape.org/) -->

<svg
   xmlns:dc="http://purl.org/dc/elements/1.1/"
   xmlns:cc="http://creativecommons.org/ns#"
   xmlns:rdf="http://www.w3.org/1999/02/22-rdf-syntax-ns#"
   xmlns:svg="http://www.w3.org/2000/svg"
   xmlns="http://www.w3.org/2000/svg"
   xmlns:sodipodi="http://sodipodi.sourceforge.net/DTD/sodipodi-0.dtd"
   xmlns:inkscape="http://www.inkscape.org/namespaces/inkscape"
   width="114.06297"
   height="24.246193"
   id="svg3298"
   version="1.1"
   inkscape:version="0.48.4 r9939"
   sodipodi:docname="Nouveau document 2">
  <defs
     id="defs3300" />
  <sodipodi:namedview
     id="base"
     pagecolor="#ffffff"
     bordercolor="#666666"
     borderopacity="1.0"
     inkscape:pageopacity="0.0"
     inkscape:pageshadow="2"
     inkscape:zoom="0.35"
     inkscape:cx="197.74577"
     inkscape:cy="-153.59119"
     inkscape:document-units="px"
     inkscape:current-layer="layer1"
     showgrid="false"
     fit-margin-top="0"
     fit-margin-left="0"
     fit-margin-right="0"
     fit-margin-bottom="0"
     inkscape:window-width="567"
     inkscape:window-height="433"
     inkscape:window-x="675"
     inkscape:window-y="325"
     inkscape:window-maximized="0" />
  <metadata
     id="metadata3303">
    <rdf:RDF>
      <cc:Work
         rdf:about="">
        <dc:format>image/svg+xml</dc:format>
        <dc:type
           rdf:resource="http://purl.org/dc/dcmitype/StillImage" />
        <dc:title></dc:title>
      </cc:Work>
    </rdf:RDF>
  </metadata>
  <g
     inkscape:label="Calque 1"
     inkscape:groupmode="layer"
     id="layer1"
     transform="translate(-177.25423,-354.5248)">
    <g
       style="display:inline"
       id="g6080"
       transform="matrix(0.21768697,0,0,0.21768697,142.60674,301.66605)">
      <path
         id="path5970"
         d="m 245.093,323.858 h -10.329 v -68.677 h 11.006 v 24.965 h 0.186 c 4.657,-5.163 10.94,-7.747 18.85,-7.747 8.411,0 15.079,2.393 19.989,7.174 4.722,4.597 7.079,10.516 7.079,17.791 0,7.271 -2.014,13.419 -6.027,18.462 -5.037,6.312 -12.562,9.474 -22.574,9.474 -7.842,0 -13.806,-2.556 -17.889,-7.655 h -0.287 l -0.004,6.213 0,0 z m 35.49,-25.153 c 0,-12.5 -5.93,-18.748 -17.793,-18.748 -11.667,0 -17.502,7.078 -17.502,21.232 0,5.932 2.074,10.394 6.213,13.396 3.259,2.289 7.116,3.438 11.576,3.438 5.741,0 10.138,-1.847 13.205,-5.54 2.867,-3.383 4.301,-7.978 4.301,-13.778 z"
         inkscape:connector-curvature="0"
         style="fill:#4d4d4d" />
      <path
         id="path5972"
         d="m 309.168,273.836 v 67.641 c 0,3.44 -0.763,6.089 -2.295,7.938 -2.616,3.193 -7.43,4.786 -14.44,4.786 -1.405,0 -2.935,-0.097 -4.595,-0.291 v -7.27 h 2.297 c 3.378,0 5.559,-0.33 6.553,-0.999 0.983,-0.67 1.478,-2.381 1.478,-5.116 v -66.688 h 11.002 z"
         inkscape:connector-curvature="0"
         style="fill:#4d4d4d" />
      <path
         id="path5974"
         d="m 362.881,308.173 h 10.998 c -0.315,1.783 -1.271,3.829 -2.867,6.122 -2.231,3.189 -5.139,5.713 -8.7,7.557 -4.463,2.301 -10.367,3.448 -17.7,3.448 -8.923,0 -16.07,-2.358 -21.426,-7.085 -5.104,-4.585 -7.652,-10.581 -7.652,-17.98 0,-8.22 2.521,-14.791 7.557,-19.697 5.486,-5.426 13.36,-8.136 23.627,-8.136 9.184,0 16.196,2.649 21.046,7.94 4.651,5.104 6.979,12.183 6.979,21.236 h -47.534 c 0,10.966 6.312,16.448 18.938,16.448 4.719,0 8.769,-1.178 12.146,-3.534 2.872,-2.047 4.397,-4.152 4.588,-6.319 z m -35.675,-13.298 h 36.253 c -0.829,-9.941 -6.89,-14.918 -18.18,-14.918 -4.972,0 -9.229,1.5 -12.769,4.494 -3.537,2.996 -5.304,6.47 -5.304,10.424 z"
         inkscape:connector-curvature="0"
         style="fill:#4d4d4d" />
      <path
         id="path5976"
         d="m 434.498,290.669 h -10.523 c -1.465,-7.14 -6.636,-10.712 -15.494,-10.712 -6.186,0 -10.843,2.045 -13.965,6.122 -2.617,3.319 -3.924,7.554 -3.924,12.722 0,12.812 5.93,19.226 17.791,19.226 3.766,0 7.062,-1.035 9.902,-3.112 2.834,-2.062 4.734,-4.986 5.688,-8.745 h 10.523 c -0.703,4.974 -2.873,9.15 -6.508,12.526 -4.781,4.401 -11.445,6.604 -19.99,6.604 -8.928,0 -16.073,-2.358 -21.427,-7.085 -5.104,-4.585 -7.651,-10.581 -7.651,-17.98 0,-8.22 2.52,-14.791 7.556,-19.697 5.486,-5.426 13.36,-8.136 23.626,-8.136 7.846,0 13.931,1.949 18.269,5.838 3.572,3.248 5.609,7.394 6.127,12.429 z"
         inkscape:connector-curvature="0"
         style="fill:#4d4d4d" />
      <path
         id="path5978"
         d="m 464.529,280.817 h -10.426 v 32.523 c 0,2.616 2.197,3.921 6.6,3.921 h 3.826 v 6.599 c -6.189,0.445 -8.93,0.675 -8.229,0.675 -4.975,0 -8.51,-1.023 -10.621,-3.063 -1.648,-1.723 -2.479,-4.269 -2.479,-7.651 v -33 h -8.896 v -6.981 h 8.896 v -13.969 h 10.902 v 13.969 h 10.426 v 6.977 z"
         inkscape:connector-curvature="0"
         style="fill:#4d4d4d" />
      <path
         id="path5980"
         d="m 482.603,273.836 v 50.022 h -11 v -50.022 h 11 z"
         inkscape:connector-curvature="0"
         style="fill:#4d4d4d" />
      <path
         id="path5982"
         d="m 519.445,280.817 h -11 v 43.042 h -10.902 v -43.042 h -8.994 v -6.981 h 8.994 v -8.604 c 0,-7.336 5.639,-11.005 16.932,-11.005 0.949,0 2.609,0.061 4.973,0.185 v 7.366 c -1.854,0 -3.35,0 -4.496,0 -4.338,0 -6.504,1.949 -6.504,5.835 v 6.223 h 11 l -0.003,6.981 0,0 z"
         inkscape:connector-curvature="0"
         style="fill:#4d4d4d" />
      <path
         id="path5984"
         d="m 309.319,257.235 v 9.563 h -10.996 v -9.563 h 10.996 z"
         inkscape:connector-curvature="0"
         style="fill:#acc600" />
      <path
         id="path5986"
         d="m 482.531,266.917 h -10.998 v -9.565 h 10.998 v 9.565 z"
         inkscape:connector-curvature="0"
         style="fill:#acc600" />
      <g
         id="g5988">
        <g
           id="g5990">
          <path
             id="path5992"
             d="m 217.41,290.317 c 0,13.215 -10.715,23.93 -23.931,23.93 -13.215,0 -23.931,-10.715 -23.931,-23.93 0,-13.211 10.706,-23.921 23.914,-23.93 v -10.37 c -18.938,10e-4 -34.3,15.355 -34.3,34.3 0,18.942 15.359,34.3 34.301,34.3 18.943,0 34.301,-15.357 34.301,-34.3 l 0,0 H 217.41 l 0,0 z"
             inkscape:connector-curvature="0"
             style="fill:#4d4d4d" />
        </g>
        <g
           id="g5994">
          <g
             id="g5996">
            <polygon
               id="polygon5998"
               points="199.54,266.358 210.147,266.358 186.981,289.524 194.292,296.837 217.444,273.686 217.444,284.314 227.786,284.314 227.786,256.018 199.54,256.018 "
               style="fill:#acc600" />
          </g>
        </g>
      </g>
      <g
         id="g6000"
         enable-background="new    ">
        <path
           id="path6002"
           d="m 328.057,352.541 v -14.44 h 1.645 v 14.44 h -1.645 z"
           inkscape:connector-curvature="0"
           style="fill:#4d4d4d" />
        <path
           id="path6004"
           d="m 340.697,352.541 v -6.146 c 0,-0.893 -0.235,-1.558 -0.704,-1.997 -0.469,-0.439 -1.107,-0.659 -1.916,-0.659 -0.809,0 -1.45,0.223 -1.926,0.669 -0.476,0.446 -0.714,1.108 -0.714,1.987 v 6.146 h -1.558 v -9.979 h 1.558 v 1.095 c 0.375,-0.405 0.815,-0.709 1.32,-0.912 0.505,-0.203 1.061,-0.305 1.667,-0.305 1.154,0 2.063,0.312 2.728,0.934 0.736,0.676 1.104,1.602 1.104,2.778 v 6.389 h -1.559 z"
           inkscape:connector-curvature="0"
           style="fill:#4d4d4d" />
        <path
           id="path6006"
           d="m 347.948,343.739 v 8.802 h -1.558 v -8.802 h -1.364 v -1.116 h 1.364 v -1.886 c 0,-0.365 0.054,-0.71 0.162,-1.034 0.108,-0.325 0.278,-0.608 0.509,-0.853 0.23,-0.243 0.512,-0.436 0.844,-0.578 0.332,-0.142 0.729,-0.213 1.19,-0.213 h 1.125 v 1.258 h -0.844 c -0.505,0 -0.87,0.129 -1.093,0.386 -0.223,0.257 -0.335,0.615 -0.335,1.074 v 1.846 h 2.273 v 1.116 h -2.273 z"
           inkscape:connector-curvature="0"
           style="fill:#4d4d4d" />
        <path
           id="path6008"
           d="m 358.792,344.469 c -0.289,-0.271 -0.563,-0.459 -0.823,-0.567 -0.26,-0.108 -0.599,-0.162 -1.017,-0.162 -0.39,0 -0.744,0.067 -1.061,0.202 -0.318,0.136 -0.584,0.325 -0.801,0.568 -0.217,0.243 -0.386,0.527 -0.509,0.852 -0.123,0.324 -0.184,0.677 -0.184,1.055 v 6.125 h -1.558 v -9.979 h 1.558 v 1.217 c 0.289,-0.419 0.704,-0.747 1.245,-0.983 0.541,-0.236 1.122,-0.355 1.742,-0.355 0.505,0 0.963,0.068 1.375,0.203 0.411,0.136 0.804,0.379 1.18,0.73 l -1.147,1.094 z"
           inkscape:connector-curvature="0"
           style="fill:#4d4d4d" />
        <path
           id="path6010"
           d="m 367.774,352.541 v -0.953 c -0.433,0.405 -0.876,0.687 -1.331,0.842 -0.455,0.155 -1.036,0.233 -1.743,0.233 -0.736,0 -1.338,-0.071 -1.807,-0.213 -0.469,-0.143 -0.87,-0.376 -1.201,-0.7 -0.26,-0.243 -0.458,-0.544 -0.595,-0.902 -0.137,-0.358 -0.206,-0.733 -0.206,-1.126 0,-0.879 0.313,-1.578 0.941,-2.099 0.627,-0.521 1.54,-0.781 2.738,-0.781 h 3.204 v -0.953 c 0,-0.73 -0.209,-1.277 -0.628,-1.643 -0.419,-0.366 -1.118,-0.548 -2.099,-0.548 -0.693,0 -1.234,0.085 -1.624,0.254 -0.39,0.169 -0.743,0.463 -1.061,0.882 l -1.061,-0.913 c 0.476,-0.581 1.006,-0.973 1.591,-1.176 0.585,-0.203 1.31,-0.305 2.175,-0.305 1.443,0 2.514,0.281 3.214,0.842 0.7,0.562 1.05,1.39 1.05,2.484 v 6.774 h -1.557 z m 0,-4.603 h -2.987 c -1.587,0 -2.381,0.588 -2.381,1.764 0,0.582 0.195,1.012 0.584,1.288 0.389,0.277 1.01,0.416 1.861,0.416 0.461,0 0.891,-0.033 1.288,-0.102 0.397,-0.067 0.761,-0.257 1.093,-0.567 0.36,-0.325 0.541,-0.899 0.541,-1.725 v -1.074 z"
           inkscape:connector-curvature="0"
           style="fill:#4d4d4d" />
        <path
           id="path6012"
           d="m 380.803,349.62 c 0,0.487 -0.105,0.917 -0.314,1.288 -0.209,0.372 -0.505,0.689 -0.887,0.953 -0.383,0.264 -0.837,0.464 -1.364,0.599 -0.527,0.135 -1.115,0.203 -1.764,0.203 -0.909,0 -1.717,-0.108 -2.424,-0.325 -0.708,-0.216 -1.357,-0.588 -1.948,-1.115 l 1.039,-0.974 c 0.418,0.42 0.909,0.717 1.472,0.893 0.563,0.176 1.176,0.264 1.84,0.264 0.88,0 1.573,-0.146 2.078,-0.437 0.505,-0.29 0.758,-0.732 0.758,-1.328 0,-0.433 -0.141,-0.771 -0.422,-1.014 -0.282,-0.244 -0.733,-0.393 -1.353,-0.446 l -1.753,-0.143 c -1.039,-0.081 -1.829,-0.341 -2.37,-0.78 -0.542,-0.439 -0.812,-1.071 -0.812,-1.896 0,-0.46 0.098,-0.868 0.292,-1.227 0.194,-0.359 0.465,-0.663 0.812,-0.913 0.347,-0.25 0.761,-0.442 1.245,-0.578 0.483,-0.135 1.006,-0.203 1.569,-0.203 0.765,0 1.475,0.089 2.132,0.264 0.656,0.176 1.223,0.446 1.699,0.812 l -1.018,0.953 c -0.375,-0.271 -0.804,-0.47 -1.288,-0.598 -0.484,-0.129 -1,-0.193 -1.548,-0.193 -0.779,0 -1.371,0.146 -1.775,0.437 -0.404,0.291 -0.606,0.692 -0.606,1.206 0,0.434 0.141,0.771 0.422,1.015 0.281,0.243 0.761,0.393 1.439,0.446 l 1.71,0.142 c 0.462,0.041 0.888,0.115 1.277,0.224 0.389,0.109 0.721,0.271 0.996,0.486 0.274,0.217 0.487,0.487 0.638,0.812 0.153,0.322 0.228,0.714 0.228,1.173 z"
           inkscape:connector-curvature="0"
           style="fill:#4d4d4d" />
        <path
           id="path6014"
           d="m 386.626,352.541 c -0.462,0 -0.862,-0.071 -1.201,-0.213 -0.339,-0.142 -0.621,-0.335 -0.844,-0.578 -0.224,-0.243 -0.394,-0.527 -0.509,-0.852 -0.116,-0.325 -0.173,-0.67 -0.173,-1.034 v -6.125 h -1.342 v -1.116 h 1.342 V 339.5 h 1.559 v 3.123 h 2.272 v 1.116 h -2.272 v 6.084 c 0,0.46 0.115,0.818 0.346,1.075 0.231,0.257 0.599,0.385 1.104,0.385 h 0.822 v 1.258 h -1.104 z"
           inkscape:connector-curvature="0"
           style="fill:#4d4d4d" />
        <path
           id="path6016"
           d="m 396.777,344.469 c -0.289,-0.271 -0.563,-0.459 -0.823,-0.567 -0.26,-0.108 -0.599,-0.162 -1.017,-0.162 -0.39,0 -0.744,0.067 -1.061,0.202 -0.318,0.136 -0.584,0.325 -0.801,0.568 -0.217,0.243 -0.386,0.527 -0.509,0.852 -0.123,0.324 -0.184,0.677 -0.184,1.055 v 6.125 h -1.558 v -9.979 h 1.558 v 1.217 c 0.289,-0.419 0.704,-0.747 1.245,-0.983 0.541,-0.236 1.122,-0.355 1.742,-0.355 0.505,0 0.963,0.068 1.375,0.203 0.411,0.136 0.804,0.379 1.18,0.73 l -1.147,1.094 z"
           inkscape:connector-curvature="0"
           style="fill:#4d4d4d" />
        <path
           id="path6018"
           d="m 406.646,352.541 v -1.115 c -0.374,0.405 -0.816,0.713 -1.327,0.923 -0.511,0.209 -1.068,0.314 -1.672,0.314 -1.165,0 -2.079,-0.312 -2.74,-0.934 -0.374,-0.352 -0.647,-0.761 -0.82,-1.227 -0.173,-0.467 -0.259,-0.99 -0.259,-1.572 v -6.368 h 1.558 v 6.146 c 0,0.893 0.23,1.559 0.69,1.997 0.46,0.44 1.092,0.659 1.897,0.659 0.805,0 1.448,-0.223 1.929,-0.669 0.481,-0.446 0.722,-1.108 0.722,-1.987 v -6.146 h 1.58 v 9.979 h -1.558 z"
           inkscape:connector-curvature="0"
           style="fill:#4d4d4d" />
        <path
           id="path6020"
           d="m 418.129,352.338 c -0.527,0.217 -1.158,0.325 -1.894,0.325 -0.678,0 -1.302,-0.105 -1.872,-0.314 -0.57,-0.21 -1.068,-0.527 -1.494,-0.953 -0.426,-0.427 -0.757,-0.96 -0.996,-1.603 -0.239,-0.643 -0.357,-1.39 -0.357,-2.241 0,-0.851 0.119,-1.596 0.357,-2.231 0.238,-0.635 0.57,-1.166 0.996,-1.592 0.425,-0.426 0.923,-0.747 1.494,-0.963 0.57,-0.217 1.194,-0.325 1.872,-0.325 0.736,0 1.367,0.108 1.894,0.325 0.526,0.216 1.064,0.602 1.613,1.155 l -1.062,0.934 c -0.404,-0.419 -0.787,-0.71 -1.147,-0.872 -0.361,-0.162 -0.794,-0.243 -1.299,-0.243 -0.52,0 -0.988,0.095 -1.407,0.283 -0.419,0.189 -0.772,0.474 -1.061,0.853 -0.246,0.324 -0.422,0.692 -0.53,1.104 -0.108,0.413 -0.163,0.937 -0.163,1.572 0,0.635 0.054,1.159 0.163,1.572 0.108,0.412 0.285,0.78 0.53,1.104 0.289,0.379 0.642,0.663 1.061,0.853 0.418,0.189 0.887,0.283 1.407,0.283 0.505,0 0.938,-0.084 1.299,-0.253 0.36,-0.169 0.743,-0.463 1.147,-0.883 l 1.062,0.954 c -0.549,0.554 -1.087,0.94 -1.613,1.156 z"
           inkscape:connector-curvature="0"
           style="fill:#4d4d4d" />
        <path
           id="path6022"
           d="m 425.693,352.541 c -0.462,0 -0.862,-0.071 -1.201,-0.213 -0.339,-0.142 -0.62,-0.335 -0.844,-0.578 -0.224,-0.243 -0.394,-0.527 -0.509,-0.852 -0.115,-0.325 -0.173,-0.67 -0.173,-1.034 v -6.125 h -1.342 v -1.116 h 1.342 V 339.5 h 1.559 v 3.123 h 2.272 v 1.116 h -2.272 v 6.084 c 0,0.46 0.115,0.818 0.346,1.075 0.231,0.257 0.599,0.385 1.104,0.385 h 0.822 v 1.258 h -1.104 z"
           inkscape:connector-curvature="0"
           style="fill:#4d4d4d" />
        <path
           id="path6024"
           d="m 436.602,352.541 v -1.115 c -0.374,0.405 -0.816,0.713 -1.327,0.923 -0.511,0.209 -1.068,0.314 -1.673,0.314 -1.165,0 -2.078,-0.312 -2.739,-0.934 -0.374,-0.352 -0.648,-0.761 -0.82,-1.227 -0.173,-0.467 -0.259,-0.99 -0.259,-1.572 v -6.368 h 1.559 v 6.146 c 0,0.893 0.229,1.559 0.689,1.997 0.46,0.44 1.092,0.659 1.896,0.659 0.806,0 1.448,-0.223 1.93,-0.669 0.482,-0.446 0.722,-1.108 0.722,-1.987 v -6.146 h 1.58 v 9.979 h -1.558 z"
           inkscape:connector-curvature="0"
           style="fill:#4d4d4d" />
        <path
           id="path6026"
           d="m 448.009,344.469 c -0.289,-0.271 -0.562,-0.459 -0.822,-0.567 -0.26,-0.108 -0.6,-0.162 -1.018,-0.162 -0.39,0 -0.743,0.067 -1.061,0.202 -0.317,0.136 -0.585,0.325 -0.801,0.568 -0.217,0.243 -0.387,0.527 -0.509,0.852 -0.123,0.324 -0.184,0.677 -0.184,1.055 v 6.125 h -1.559 v -9.979 h 1.559 v 1.217 c 0.288,-0.419 0.703,-0.747 1.244,-0.983 0.541,-0.236 1.122,-0.355 1.742,-0.355 0.505,0 0.963,0.068 1.375,0.203 0.411,0.136 0.804,0.379 1.18,0.73 l -1.146,1.094 z"
           inkscape:connector-curvature="0"
           style="fill:#4d4d4d" />
        <path
           id="path6028"
           d="m 451.406,347.938 c 0,1.089 0.267,1.932 0.801,2.53 0.534,0.598 1.313,0.896 2.338,0.896 0.62,0 1.137,-0.091 1.548,-0.273 0.411,-0.182 0.825,-0.47 1.244,-0.862 l 1.061,0.872 c -0.274,0.259 -0.545,0.484 -0.812,0.677 -0.268,0.192 -0.552,0.354 -0.855,0.483 -0.303,0.131 -0.638,0.23 -1.006,0.299 -0.368,0.069 -0.776,0.104 -1.223,0.104 -0.708,0 -1.346,-0.102 -1.916,-0.305 -0.57,-0.203 -1.058,-0.514 -1.461,-0.933 -0.404,-0.419 -0.718,-0.95 -0.941,-1.593 -0.224,-0.642 -0.336,-1.402 -0.336,-2.281 0,-1.622 0.39,-2.88 1.169,-3.772 0.779,-0.892 1.847,-1.339 3.203,-1.339 1.386,0 2.461,0.434 3.226,1.299 0.765,0.865 1.147,2.041 1.147,3.528 v 0.67 h -7.187 z m 5.584,-1.624 c -0.014,-0.148 -0.032,-0.284 -0.054,-0.405 -0.021,-0.122 -0.051,-0.24 -0.087,-0.355 -0.036,-0.114 -0.083,-0.239 -0.141,-0.375 -0.202,-0.459 -0.526,-0.824 -0.974,-1.095 -0.448,-0.271 -0.952,-0.406 -1.516,-0.406 -0.562,0 -1.067,0.136 -1.515,0.406 -0.448,0.27 -0.772,0.636 -0.974,1.095 -0.116,0.271 -0.195,0.514 -0.238,0.73 -0.044,0.216 -0.072,0.527 -0.087,0.933 h 5.628 c -0.013,-0.203 -0.027,-0.378 -0.042,-0.528 z"
           inkscape:connector-curvature="0"
           style="fill:#4d4d4d" />
        <path
           id="path6030"
           d="m 477.812,352.541 -1.385,-1.582 c -0.159,0.136 -0.368,0.301 -0.628,0.497 -0.26,0.196 -0.577,0.382 -0.952,0.558 -0.375,0.176 -0.809,0.328 -1.299,0.456 -0.49,0.129 -1.046,0.193 -1.666,0.193 -0.751,0 -1.426,-0.102 -2.024,-0.305 -0.598,-0.203 -1.111,-0.486 -1.536,-0.852 -0.426,-0.365 -0.751,-0.805 -0.975,-1.318 -0.224,-0.513 -0.335,-1.088 -0.335,-1.724 0,-0.541 0.094,-1.021 0.281,-1.44 0.187,-0.419 0.436,-0.798 0.746,-1.136 0.31,-0.338 0.668,-0.646 1.072,-0.923 0.403,-0.277 0.814,-0.551 1.233,-0.821 -0.188,-0.216 -0.379,-0.439 -0.573,-0.669 -0.195,-0.23 -0.376,-0.474 -0.542,-0.73 -0.166,-0.256 -0.299,-0.53 -0.4,-0.821 -0.101,-0.291 -0.151,-0.599 -0.151,-0.923 0,-0.433 0.083,-0.832 0.25,-1.196 0.166,-0.365 0.401,-0.683 0.706,-0.954 0.304,-0.27 0.665,-0.482 1.085,-0.639 0.42,-0.155 0.876,-0.233 1.368,-0.233 0.478,0 0.923,0.078 1.336,0.233 0.412,0.156 0.771,0.369 1.074,0.639 0.304,0.271 0.539,0.592 0.706,0.964 0.166,0.372 0.25,0.774 0.25,1.207 0,0.581 -0.163,1.078 -0.487,1.49 -0.325,0.413 -0.732,0.774 -1.223,1.085 -0.145,0.108 -0.289,0.203 -0.434,0.284 -0.115,0.081 -0.241,0.159 -0.379,0.233 -0.137,0.074 -0.248,0.146 -0.335,0.213 l 3.918,4.441 c 0.158,-0.216 0.292,-0.436 0.4,-0.659 0.107,-0.223 0.194,-0.463 0.26,-0.72 0.064,-0.257 0.115,-0.541 0.151,-0.852 0.035,-0.312 0.054,-0.67 0.054,-1.075 h 1.559 c -0.015,0.92 -0.13,1.744 -0.347,2.475 -0.216,0.729 -0.577,1.379 -1.082,1.946 l 2.359,2.657 h -2.055 z m -6.557,-7.423 c -0.332,0.216 -0.657,0.433 -0.975,0.648 -0.317,0.217 -0.599,0.453 -0.844,0.71 -0.245,0.257 -0.443,0.545 -0.596,0.862 -0.151,0.317 -0.227,0.68 -0.227,1.085 0,0.433 0.079,0.825 0.238,1.177 0.158,0.352 0.382,0.655 0.671,0.912 0.288,0.257 0.631,0.453 1.027,0.588 0.397,0.136 0.834,0.203 1.31,0.203 0.577,0 1.162,-0.095 1.754,-0.284 0.591,-0.188 1.219,-0.561 1.883,-1.115 l -4.241,-4.786 z m 2.64,-4.117 c 0,-0.487 -0.174,-0.896 -0.52,-1.228 -0.347,-0.331 -0.779,-0.496 -1.299,-0.496 -0.534,0 -0.963,0.158 -1.288,0.477 -0.324,0.317 -0.486,0.72 -0.486,1.206 0,0.339 0.104,0.673 0.313,1.004 0.209,0.332 0.566,0.788 1.071,1.369 0.072,-0.04 0.151,-0.088 0.238,-0.142 0.086,-0.054 0.173,-0.115 0.26,-0.183 0.101,-0.054 0.209,-0.122 0.324,-0.203 0.36,-0.229 0.682,-0.483 0.964,-0.761 0.283,-0.275 0.423,-0.624 0.423,-1.043 z"
           inkscape:connector-curvature="0"
           style="fill:#4d4d4d" />
        <path
           id="path6032"
           d="m 490.603,339.479 v 5.314 h 6.753 v 1.379 h -6.753 v 6.368 h -1.645 V 338.1 h 9.566 v 1.379 h -7.921 z"
           inkscape:connector-curvature="0"
           style="fill:#4d4d4d" />
        <path
           id="path6034"
           d="m 508.547,347.552 c 0,0.771 -0.083,1.498 -0.248,2.181 -0.167,0.683 -0.517,1.281 -1.05,1.795 -0.376,0.352 -0.815,0.628 -1.32,0.831 -0.506,0.203 -1.083,0.305 -1.732,0.305 -0.648,0 -1.227,-0.102 -1.731,-0.305 -0.504,-0.203 -0.945,-0.479 -1.32,-0.831 -0.274,-0.257 -0.494,-0.538 -0.66,-0.842 -0.166,-0.305 -0.296,-0.622 -0.39,-0.953 -0.094,-0.332 -0.158,-0.68 -0.194,-1.045 -0.036,-0.365 -0.055,-0.743 -0.055,-1.136 0,-0.378 0.019,-0.754 0.055,-1.126 0.036,-0.371 0.101,-0.723 0.194,-1.055 0.094,-0.331 0.224,-0.648 0.39,-0.953 0.166,-0.304 0.386,-0.584 0.66,-0.842 0.375,-0.351 0.815,-0.628 1.32,-0.831 0.505,-0.203 1.083,-0.305 1.731,-0.305 0.649,0 1.227,0.102 1.732,0.305 0.505,0.203 0.944,0.48 1.32,0.831 0.533,0.515 0.883,1.112 1.05,1.795 0.165,0.684 0.248,1.41 0.248,2.181 z m -1.558,0 c 0,-0.284 -0.008,-0.568 -0.022,-0.852 -0.014,-0.284 -0.051,-0.562 -0.107,-0.832 -0.059,-0.271 -0.145,-0.523 -0.26,-0.761 -0.116,-0.236 -0.268,-0.449 -0.455,-0.639 -0.52,-0.486 -1.169,-0.729 -1.948,-0.729 -0.765,0 -1.406,0.243 -1.926,0.729 -0.202,0.189 -0.357,0.402 -0.466,0.639 -0.107,0.237 -0.194,0.49 -0.26,0.761 -0.064,0.271 -0.104,0.548 -0.119,0.832 -0.014,0.283 -0.021,0.567 -0.021,0.852 0,0.285 0.008,0.568 0.021,0.852 0.015,0.284 0.055,0.562 0.119,0.832 0.065,0.271 0.152,0.527 0.26,0.771 0.108,0.243 0.264,0.453 0.466,0.629 0.52,0.486 1.161,0.729 1.926,0.729 0.779,0 1.429,-0.243 1.948,-0.729 0.188,-0.176 0.339,-0.386 0.455,-0.629 0.115,-0.243 0.201,-0.5 0.26,-0.771 0.057,-0.271 0.094,-0.548 0.107,-0.832 0.014,-0.284 0.022,-0.568 0.022,-0.852 z"
           inkscape:connector-curvature="0"
           style="fill:#4d4d4d" />
        <path
           id="path6036"
           d="m 517.833,344.469 c -0.289,-0.271 -0.562,-0.459 -0.822,-0.567 -0.26,-0.108 -0.6,-0.162 -1.018,-0.162 -0.39,0 -0.743,0.067 -1.061,0.202 -0.317,0.136 -0.585,0.325 -0.801,0.568 -0.217,0.243 -0.387,0.527 -0.509,0.852 -0.123,0.324 -0.184,0.677 -0.184,1.055 v 6.125 h -1.559 v -9.979 h 1.559 v 1.217 c 0.288,-0.419 0.703,-0.747 1.244,-0.983 0.541,-0.236 1.122,-0.355 1.742,-0.355 0.505,0 0.963,0.068 1.375,0.203 0.411,0.136 0.804,0.379 1.18,0.73 l -1.146,1.094 z"
           inkscape:connector-curvature="0"
           style="fill:#4d4d4d" />
        <path
           id="path6038"
           d="m 534.672,352.541 v -6.146 c 0,-0.893 -0.234,-1.558 -0.703,-1.997 -0.469,-0.439 -1.107,-0.659 -1.915,-0.659 -0.779,0 -1.418,0.216 -1.916,0.648 -0.498,0.432 -0.747,1.048 -0.747,1.846 v 6.308 h -1.558 v -6.146 c 0,-0.893 -0.235,-1.558 -0.704,-1.997 -0.469,-0.439 -1.107,-0.659 -1.915,-0.659 -0.809,0 -1.454,0.223 -1.938,0.669 -0.484,0.446 -0.725,1.108 -0.725,1.987 v 6.146 h -1.559 v -9.979 h 1.559 v 1.095 c 0.375,-0.405 0.818,-0.709 1.331,-0.912 0.512,-0.203 1.071,-0.305 1.677,-0.305 0.736,0 1.382,0.14 1.938,0.416 0.556,0.277 0.999,0.693 1.331,1.247 0.837,-1.108 2.006,-1.663 3.507,-1.663 0.576,0 1.096,0.081 1.558,0.244 0.462,0.162 0.858,0.392 1.19,0.689 0.765,0.689 1.147,1.615 1.147,2.778 v 6.389 h -1.558 z"
           inkscape:connector-curvature="0"
           style="fill:#4d4d4d" />
        <path
           id="path6040"
           d="m 546.056,352.541 v -0.953 c -0.433,0.405 -0.876,0.687 -1.331,0.842 -0.454,0.155 -1.035,0.233 -1.742,0.233 -0.735,0 -1.338,-0.071 -1.807,-0.213 -0.47,-0.143 -0.87,-0.376 -1.202,-0.7 -0.26,-0.243 -0.458,-0.544 -0.595,-0.902 -0.138,-0.358 -0.206,-0.733 -0.206,-1.126 0,-0.879 0.314,-1.578 0.941,-2.099 0.628,-0.521 1.541,-0.781 2.738,-0.781 h 3.203 v -0.953 c 0,-0.73 -0.209,-1.277 -0.627,-1.643 -0.419,-0.365 -1.119,-0.548 -2.1,-0.548 -0.692,0 -1.234,0.085 -1.623,0.254 -0.39,0.169 -0.744,0.463 -1.061,0.882 l -1.062,-0.913 c 0.477,-0.581 1.007,-0.973 1.592,-1.176 0.584,-0.203 1.309,-0.305 2.175,-0.305 1.442,0 2.514,0.281 3.214,0.842 0.7,0.562 1.05,1.39 1.05,2.484 v 6.774 h -1.557 z m 0,-4.603 h -2.986 c -1.588,0 -2.381,0.588 -2.381,1.764 0,0.582 0.194,1.012 0.584,1.288 0.39,0.277 1.01,0.416 1.861,0.416 0.462,0 0.892,-0.033 1.288,-0.102 0.396,-0.067 0.761,-0.257 1.093,-0.567 0.361,-0.325 0.541,-0.899 0.541,-1.725 v -1.074 z"
           inkscape:connector-curvature="0"
           style="fill:#4d4d4d" />
        <path
           id="path6042"
           d="m 554.389,352.541 c -0.462,0 -0.862,-0.071 -1.201,-0.213 -0.339,-0.142 -0.62,-0.335 -0.844,-0.578 -0.224,-0.243 -0.394,-0.527 -0.509,-0.852 -0.115,-0.325 -0.173,-0.67 -0.173,-1.034 v -6.125 h -1.342 v -1.116 h 1.342 V 339.5 h 1.559 v 3.123 h 2.272 v 1.116 h -2.272 v 6.084 c 0,0.46 0.115,0.818 0.346,1.075 0.231,0.257 0.599,0.385 1.104,0.385 h 0.822 v 1.258 h -1.104 z"
           inkscape:connector-curvature="0"
           style="fill:#4d4d4d" />
        <path
           id="path6044"
           d="m 558.502,339.723 v -1.643 h 1.753 v 1.643 h -1.753 z m 0.087,12.818 v -9.979 h 1.559 v 9.979 h -1.559 z"
           inkscape:connector-curvature="0"
           style="fill:#4d4d4d" />
        <path
           id="path6046"
           d="m 572.202,347.552 c 0,0.771 -0.083,1.498 -0.248,2.181 -0.167,0.683 -0.517,1.281 -1.05,1.795 -0.376,0.352 -0.815,0.628 -1.32,0.831 -0.506,0.203 -1.083,0.305 -1.732,0.305 -0.648,0 -1.227,-0.102 -1.731,-0.305 -0.504,-0.203 -0.945,-0.479 -1.32,-0.831 -0.274,-0.257 -0.494,-0.538 -0.66,-0.842 -0.166,-0.305 -0.296,-0.622 -0.39,-0.953 -0.094,-0.332 -0.158,-0.68 -0.194,-1.045 -0.036,-0.365 -0.055,-0.743 -0.055,-1.136 0,-0.378 0.019,-0.754 0.055,-1.126 0.036,-0.371 0.101,-0.723 0.194,-1.055 0.094,-0.331 0.224,-0.648 0.39,-0.953 0.166,-0.304 0.386,-0.584 0.66,-0.842 0.375,-0.351 0.815,-0.628 1.32,-0.831 0.505,-0.203 1.083,-0.305 1.731,-0.305 0.649,0 1.227,0.102 1.732,0.305 0.505,0.203 0.944,0.48 1.32,0.831 0.533,0.515 0.883,1.112 1.05,1.795 0.165,0.684 0.248,1.41 0.248,2.181 z m -1.558,0 c 0,-0.284 -0.008,-0.568 -0.022,-0.852 -0.014,-0.284 -0.051,-0.562 -0.107,-0.832 -0.059,-0.271 -0.145,-0.523 -0.26,-0.761 -0.116,-0.236 -0.268,-0.449 -0.455,-0.639 -0.52,-0.486 -1.169,-0.729 -1.948,-0.729 -0.765,0 -1.406,0.243 -1.926,0.729 -0.202,0.189 -0.357,0.402 -0.466,0.639 -0.107,0.237 -0.194,0.49 -0.26,0.761 -0.064,0.271 -0.104,0.548 -0.119,0.832 -0.014,0.283 -0.021,0.567 -0.021,0.852 0,0.285 0.008,0.568 0.021,0.852 0.015,0.284 0.055,0.562 0.119,0.832 0.065,0.271 0.152,0.527 0.26,0.771 0.108,0.243 0.264,0.453 0.466,0.629 0.52,0.486 1.161,0.729 1.926,0.729 0.779,0 1.429,-0.243 1.948,-0.729 0.188,-0.176 0.339,-0.386 0.455,-0.629 0.115,-0.243 0.201,-0.5 0.26,-0.771 0.057,-0.271 0.094,-0.548 0.107,-0.832 0.014,-0.284 0.022,-0.568 0.022,-0.852 z"
           inkscape:connector-curvature="0"
           style="fill:#4d4d4d" />
        <path
           id="path6048"
           d="m 582.353,352.541 v -6.146 c 0,-0.893 -0.234,-1.558 -0.703,-1.997 -0.469,-0.439 -1.107,-0.659 -1.915,-0.659 -0.809,0 -1.45,0.223 -1.927,0.669 -0.477,0.446 -0.714,1.108 -0.714,1.987 v 6.146 h -1.559 v -9.979 h 1.559 v 1.095 c 0.375,-0.405 0.814,-0.709 1.32,-0.912 0.505,-0.203 1.061,-0.305 1.666,-0.305 1.154,0 2.063,0.312 2.728,0.934 0.735,0.676 1.104,1.602 1.104,2.778 v 6.389 h -1.559 z"
           inkscape:connector-curvature="0"
           style="fill:#4d4d4d" />
        <path
           id="path6050"
           d="m 595.384,349.62 c 0,0.487 -0.104,0.917 -0.313,1.288 -0.21,0.372 -0.506,0.689 -0.888,0.953 -0.383,0.264 -0.837,0.464 -1.363,0.599 -0.527,0.135 -1.115,0.203 -1.765,0.203 -0.909,0 -1.717,-0.108 -2.424,-0.325 -0.707,-0.216 -1.356,-0.588 -1.948,-1.115 l 1.039,-0.974 c 0.418,0.42 0.909,0.717 1.472,0.893 0.563,0.176 1.176,0.264 1.84,0.264 0.88,0 1.572,-0.146 2.078,-0.437 0.505,-0.29 0.757,-0.732 0.757,-1.328 0,-0.433 -0.141,-0.771 -0.422,-1.014 -0.281,-0.244 -0.732,-0.393 -1.353,-0.446 l -1.753,-0.143 c -1.039,-0.081 -1.829,-0.341 -2.37,-0.78 -0.541,-0.439 -0.812,-1.071 -0.812,-1.896 0,-0.46 0.097,-0.868 0.292,-1.227 0.194,-0.358 0.465,-0.663 0.812,-0.913 0.347,-0.25 0.761,-0.442 1.244,-0.578 0.483,-0.135 1.007,-0.203 1.569,-0.203 0.765,0 1.476,0.089 2.132,0.264 0.657,0.176 1.224,0.446 1.699,0.812 l -1.017,0.953 c -0.376,-0.271 -0.805,-0.47 -1.288,-0.598 -0.483,-0.129 -0.999,-0.193 -1.548,-0.193 -0.779,0 -1.371,0.146 -1.774,0.437 -0.404,0.291 -0.606,0.692 -0.606,1.206 0,0.434 0.141,0.771 0.422,1.015 0.281,0.244 0.762,0.393 1.439,0.446 l 1.71,0.142 c 0.462,0.041 0.888,0.115 1.277,0.224 0.389,0.109 0.722,0.271 0.995,0.486 0.274,0.217 0.487,0.487 0.639,0.812 0.152,0.325 0.228,0.714 0.228,1.173 z"
           inkscape:connector-curvature="0"
           style="fill:#4d4d4d" />
        <path
           id="path6052"
           d="m 604.106,352.541 v -14.44 h 1.645 v 13.062 h 7.879 v 1.379 h -9.524 z"
           inkscape:connector-curvature="0"
           style="fill:#4d4d4d" />
        <path
           id="path6054"
           d="m 616.14,339.723 v -1.643 h 1.753 v 1.643 h -1.753 z m 0.087,12.818 v -9.979 h 1.559 v 9.979 h -1.559 z"
           inkscape:connector-curvature="0"
           style="fill:#4d4d4d" />
        <path
           id="path6056"
           d="m 628.52,352.541 v -6.146 c 0,-0.893 -0.234,-1.558 -0.703,-1.997 -0.469,-0.439 -1.107,-0.659 -1.915,-0.659 -0.809,0 -1.45,0.223 -1.927,0.669 -0.477,0.446 -0.714,1.108 -0.714,1.987 v 6.146 h -1.559 v -9.979 h 1.559 v 1.095 c 0.375,-0.405 0.814,-0.709 1.32,-0.912 0.505,-0.203 1.061,-0.305 1.666,-0.305 1.154,0 2.063,0.312 2.728,0.934 0.735,0.676 1.104,1.602 1.104,2.778 v 6.389 h -1.559 z"
           inkscape:connector-curvature="0"
           style="fill:#4d4d4d" />
        <path
           id="path6058"
           d="m 640.577,352.541 v -1.115 c -0.374,0.405 -0.816,0.713 -1.327,0.923 -0.511,0.209 -1.068,0.314 -1.673,0.314 -1.165,0 -2.078,-0.312 -2.739,-0.934 -0.374,-0.352 -0.648,-0.761 -0.82,-1.227 -0.173,-0.467 -0.259,-0.99 -0.259,-1.572 v -6.368 h 1.559 v 6.146 c 0,0.893 0.229,1.559 0.689,1.997 0.46,0.44 1.092,0.659 1.896,0.659 0.806,0 1.448,-0.223 1.93,-0.669 0.482,-0.446 0.722,-1.108 0.722,-1.987 v -6.146 h 1.58 v 9.979 h -1.558 z"
           inkscape:connector-curvature="0"
           style="fill:#4d4d4d" />
        <path
           id="path6060"
           d="m 651.832,352.541 -2.555,-3.874 -2.597,3.874 h -1.884 l 3.615,-5.091 -3.463,-4.888 h 1.883 l 2.445,3.691 2.403,-3.691 h 1.883 l -3.463,4.888 3.614,5.091 h -1.881 z"
           inkscape:connector-curvature="0"
           style="fill:#4d4d4d" />
      </g>
      <g
         id="g6062">
        <path
           id="path6064"
           d="m 578.373,310.28 c 0,2.333 -1.498,5.099 -4.494,8.298 -3.479,3.689 -7.198,5.533 -11.158,5.533 -2.891,0 -5.271,-1.408 -7.144,-4.229 -1.445,-2.169 -2.169,-4.149 -2.169,-5.938 v -5.775 c 0.854,-4.882 1.632,-8.513 2.329,-10.9 2.139,-7.265 4.682,-10.898 7.627,-10.898 1.496,0 2.487,0.244 2.969,0.731 0.482,0.488 0.722,1.275 0.722,2.359 -0.053,0.868 -0.081,1.546 -0.081,2.034 0,1.031 -0.709,5.031 -2.126,11.998 -1.419,6.971 -2.127,11.403 -2.127,13.302 0,1.953 0.937,2.93 2.809,2.93 1.126,0 2.624,-1.031 4.498,-3.093 2.566,-2.821 5.136,-5.644 7.704,-8.465 0.268,0.216 0.428,0.379 0.483,0.487 0.106,0.162 0.158,0.704 0.158,1.626 z m -6.42,-42.03 c 0,1.789 -0.857,3.278 -2.568,4.47 -1.285,0.922 -2.328,1.381 -3.131,1.381 -1.447,0 -2.757,-0.541 -3.935,-1.625 -1.178,-1.083 -1.768,-2.247 -1.768,-3.494 0,-1.354 0.59,-2.709 1.768,-4.064 1.389,-1.568 2.942,-2.355 4.654,-2.355 2.088,0 3.507,0.678 4.257,2.03 0.482,0.868 0.723,2.087 0.723,3.657 z"
           inkscape:connector-curvature="0"
           style="fill:#acc600" />
        <path
           id="path6066"
           d="m 616.427,308.816 c -1.447,2.061 -3.133,3.389 -5.059,3.985 -2.408,0.38 -4.789,0.761 -7.145,1.139 -1.66,3.093 -3.573,5.561 -5.742,7.404 -2.167,1.845 -5.016,2.767 -8.548,2.767 -3.372,0 -6.251,-1.124 -8.63,-3.374 -2.385,-2.249 -3.573,-4.999 -3.573,-8.252 0,0 -0.027,-10.246 0,-12.355 0.026,-2.108 0.989,-6.855 2.971,-15.202 2.622,-11.164 5.699,-20.295 9.232,-27.396 4.816,-9.808 10.062,-14.712 15.735,-14.712 2.085,0 3.812,0.826 5.176,2.479 1.365,1.652 2.049,3.726 2.049,6.219 0,4.768 -2.275,11.028 -6.825,18.778 -4.28,6.828 -8.563,13.63 -12.844,20.405 -4.604,7.967 -6.905,14.498 -6.905,19.593 v 6.583 c 0,2.006 0.562,3.305 1.687,3.902 0.48,0.271 1.318,0.463 2.649,0.407 1.332,-0.056 3.129,-0.895 5.86,-2.683 3.263,-2.115 4.896,-4.121 4.896,-6.018 -0.566,-1.88 -1.716,-3.508 -2.487,-4.309 -1.586,-1.644 -2.092,-3.126 -2.568,-5.121 -0.476,-1.995 -0.255,-4.812 0,-6.504 0.254,-1.694 0.801,-3.577 2.408,-6.018 1.818,-2.764 3.64,-4.146 5.458,-4.146 1.018,0 2.061,0.596 3.131,1.787 1.284,1.409 2.262,3.158 2.262,4.892 0,0 0.122,2.436 0.008,4.223 -0.07,1.1 -0.53,2.56 -0.583,2.992 -0.481,2.548 -1.276,5.492 -1.928,6.42 -0.652,0.928 0,2.845 0,2.845 h 4.336 c 0.534,-0.271 1.109,-0.53 1.727,-0.773 0.613,-0.244 1.056,-0.366 1.323,-0.366 0.162,0 0.442,0.07 0.844,0.203 0.401,0.138 0.765,0.206 1.085,0.206 z m -8.591,-57.301 c 0,-0.325 0,-0.65 0,-0.977 0,-1.137 -0.267,-1.976 -0.803,-2.518 -0.534,-0.543 -1.231,-0.814 -2.086,-0.814 -3.158,0 -5.994,4.039 -8.51,12.113 -1.928,9.539 -3.855,19.05 -5.781,28.534 0.964,-1.03 2.729,-3.631 5.298,-7.805 3.266,-5.311 5.888,-10.162 7.869,-14.551 2.676,-5.906 4.013,-10.567 4.013,-13.982 z m -7.822,48.332 c 0.097,0.723 0.088,2.441 0.354,3.362 0.535,1.734 1.242,3.486 2.933,3.205 0.851,-0.973 1.201,-2.477 1.579,-3.405 0.381,-0.93 0.837,-2.673 0.837,-3.487 0,-0.54 0.365,-2.194 -0.244,-3.654 -0.608,-1.459 -1.096,-2.314 -2.492,-2.255 -1.991,0.085 -2.018,0.462 -2.571,1.308 -0.515,0.79 -0.637,3.101 -0.396,4.926 z"
           inkscape:connector-curvature="0"
           style="fill:#acc600" />
        <path
           id="path6068"
           d="m 645.408,306.303 c -0.804,0.594 -1.577,1.188 -2.329,1.782 -0.588,0.325 -1.498,0.487 -2.729,0.487 -2.676,0 -4.87,-1.319 -6.582,-3.958 -1.233,-2.099 -2.462,-4.2 -3.693,-6.3 -3.318,5.565 -5.729,10.132 -7.225,13.697 -1.498,4.053 -2.971,8.079 -4.416,12.079 h -8.028 c 0,0 -0.429,-5.422 0,-7.383 0.429,-1.961 1.246,-5.881 1.968,-11.963 0.723,-6.084 1.512,-10.262 2.366,-12.534 1.446,-3.838 5.015,-5.795 6.584,-5.759 3.153,0.523 4.006,2.96 3.641,4.056 -0.365,1.096 -2.192,6.091 -2.558,8.04 -0.366,1.948 -0.36,4.154 -0.36,4.154 2.354,-1.84 5.219,-5.471 8.591,-10.888 2.192,-3.575 5.163,-5.363 8.909,-5.363 1.126,0 1.9,0.108 2.329,0.324 0.909,0.433 1.364,1.298 1.364,2.593 0,0.866 -0.723,2.864 -2.167,5.997 -1.447,3.134 -2.17,5.321 -2.17,6.563 0,1.62 0.911,2.647 2.729,3.079 1.823,0.432 3.079,0.865 3.776,1.297 z"
           inkscape:connector-curvature="0"
           style="fill:#acc600" />
        <path
           id="path6070"
           d="m 683.139,312.715 c -2.462,2.548 -4.496,4.442 -6.101,5.688 -4.817,3.793 -9.1,5.688 -12.844,5.688 h -7.067 c -2.782,0 -5.672,-1.352 -8.67,-4.058 -3.586,-3.244 -5.379,-7.109 -5.379,-11.6 0,-1.946 0.856,-4.515 2.57,-7.706 2.14,-3.947 4.815,-7.138 8.027,-9.572 4.173,-3.135 8.83,-4.705 13.97,-4.705 3.96,0 6.768,0.811 8.429,2.435 1.391,1.351 2.088,3.379 2.088,6.082 0,4.054 -2.062,7.569 -6.183,10.542 -2.142,1.57 -5.969,3.516 -11.48,5.841 -4.12,1.729 -6.181,3.135 -6.181,4.217 0,1.081 0.748,2.178 2.246,3.285 1.498,1.108 3.319,1.662 5.458,1.662 4.123,0 7.521,-0.895 10.196,-2.682 3.64,-2.871 7.278,-5.769 10.92,-8.694 v 3.577 l 10e-4,0 z m -14.048,-17.733 c 0,-1.679 -0.269,-2.816 -0.804,-3.412 -0.534,-0.596 -1.444,-0.896 -2.729,-0.896 -2.568,0 -4.605,1.33 -6.102,3.982 -1.498,2.655 -2.25,4.532 -4.415,8.125 -3.214,5.336 0,6.42 0,6.42 3.103,-1.19 5.431,-2.302 6.983,-3.332 4.712,-3.086 7.067,-6.715 7.067,-10.887 z"
           inkscape:connector-curvature="0"
           style="fill:#acc600" />
      </g>
      <path
         id="path6072"
         d="m 554.771,313.103 c -1.345,3.159 -5.616,6.224 -7.521,8.179 -1.902,1.958 -4.503,3.049 -7.804,3.27 -3.151,0.212 -5.914,-0.718 -8.289,-2.791 -2.376,-2.072 -3.669,-4.714 -3.885,-7.928 0,0 -0.797,-9.45 -0.818,-12.205 -0.021,-2.756 0.47,-6.834 1.768,-15.203 1.709,-11.194 3.978,-20.408 6.809,-27.643 3.849,-9.991 8.426,-15.165 13.729,-15.521 1.949,-0.13 3.615,0.578 5,2.125 1.386,1.547 2.163,3.553 2.328,6.016 0.316,4.711 -1.396,11.037 -5.132,18.977 -3.547,7.014 -7.097,14.003 -10.649,20.963 -3.772,8.16 -5.488,14.752 -5.151,19.787 l 0.437,6.504 c 0.134,1.98 0.745,3.23 1.835,3.748 0.468,0.239 1.301,0.316 2.503,0.235 1.098,-0.073 2.864,-1.079 5.297,-3.016 2.909,-2.295 9.31,-7.395 9.182,-9.269 m -3.05,-57.615 c -0.021,-0.32 -0.045,-0.641 -0.066,-0.965 -0.074,-1.123 -0.382,-1.935 -0.917,-2.438 -0.536,-0.502 -1.203,-0.727 -2.004,-0.673 -2.951,0.199 -5.333,4.365 -7.147,12.5 -1.168,9.542 -2.338,19.059 -3.508,28.548 0.831,-1.077 2.309,-3.757 4.433,-8.041 2.696,-5.452 4.824,-10.408 6.387,-14.868 2.106,-6.002 3.047,-10.69 2.822,-14.063 z"
         inkscape:connector-curvature="0"
         style="fill:#acc600" />
    </g>
  </g>
</svg>
