<?xml version="1.0" encoding="UTF-8" standalone="no"?>
<!-- Created with Inkscape (http://www.inkscape.org/) -->

<svg
   xmlns:dc="http://purl.org/dc/elements/1.1/"
   xmlns:cc="http://creativecommons.org/ns#"
   xmlns:rdf="http://www.w3.org/1999/02/22-rdf-syntax-ns#"
   xmlns:svg="http://www.w3.org/2000/svg"
   xmlns="http://www.w3.org/2000/svg"
   xmlns:sodipodi="http://sodipodi.sourceforge.net/DTD/sodipodi-0.dtd"
   xmlns:inkscape="http://www.inkscape.org/namespaces/inkscape"
   width="250"
   height="70"
   id="svg3024"
   version="1.1"
   inkscape:version="0.48.1 "
   sodipodi:docname="Logo_Quadri_Inpi.svg"
   inkscape:export-filename="C:\Users\frederic\Documents\Snootlab\Marque\Logo\V2\logo_bnp_snootlab.png"
   inkscape:export-xdpi="116"
   inkscape:export-ydpi="116">
  <defs
     id="defs3026" />
  <sodipodi:namedview
     id="base"
     pagecolor="#ffffff"
     bordercolor="#666666"
     borderopacity="1.0"
     inkscape:pageopacity="0.0"
     inkscape:pageshadow="2"
     inkscape:zoom="5.6568542"
     inkscape:cx="135.84072"
     inkscape:cy="27.620565"
     inkscape:document-units="px"
     inkscape:current-layer="layer1"
     showgrid="true"
     borderlayer="false"
     width="372px"
     inkscape:window-width="1920"
     inkscape:window-height="1018"
     inkscape:window-x="-8"
     inkscape:window-y="-8"
     inkscape:window-maximized="1"
     fit-margin-top="5"
     fit-margin-left="5"
     fit-margin-right="5"
     fit-margin-bottom="5">
    <inkscape:grid
       type="xygrid"
       id="grid3760"
       empspacing="5"
       visible="true"
       enabled="true"
       snapvisiblegridlinesonly="true" />
  </sodipodi:namedview>
  <metadata
     id="metadata3029">
    <rdf:RDF>
      <cc:Work
         rdf:about="">
        <dc:format>image/svg+xml</dc:format>
        <dc:type
           rdf:resource="http://purl.org/dc/dcmitype/StillImage" />
        <dc:title></dc:title>
      </cc:Work>
    </rdf:RDF>
  </metadata>
  <g
     inkscape:label="Calque 1"
     inkscape:groupmode="layer"
     id="layer1"
     transform="translate(8e-8,-982.36218)">
    <g
       transform="matrix(0.64604178,0,0,0.64604178,2.4158328,986.21691)"
       id="g3">
      <polygon
         points="63.294,94.285 53.275,94.285 53.275,61.612 68.797,61.612 87.616,85.35 87.706,85.35 87.706,61.612 97.724,61.612 97.724,94.285 82.201,94.285 63.382,70.548 63.294,70.548 "
         id="polygon5" />
      <polygon
         points="240.636,69.736 226.556,69.736 226.556,94.285 216.536,94.285 216.536,69.736 202.456,69.736 202.456,61.612 240.636,61.612 "
         id="polygon7" />
      <path
         inkscape:connector-curvature="0"
         d="m 198.805,64.168 c 0,-20.535 7.731,-33.977 7.731,-33.977 -7.012,6.309 -14.742,4.57 -14.742,4.57 C 204.153,24.736 198.151,4 198.151,4 c 0,0 -6.197,12.355 -25.074,15.757 -16.939,3.05 -21.792,9.71 -21.792,9.71 V 14.154 c -22.912,7.496 -30.773,22.371 -30.773,22.371 l -3.374,-9.999 c -14.355,17.739 -13.369,48.809 -13.369,48.809 v 7.488 c 0,9.566 5.371,11.823 14.395,11.823 h 16.065 c 9.023,0 14.394,-2.257 14.394,-11.823 v -9.748 c 0,-1.442 1.193,-2.612 2.662,-2.612 1.47,0 2.661,1.17 2.661,2.612 v 9.748 c 0,9.566 5.372,11.823 14.396,11.823 h 16.065 c 9.026,0 14.396,-2.257 14.396,-11.823 V 64.168 z m -59.812,15.649 c 0,5.034 -1.047,6.956 -6.044,6.956 h -13.513 c -4.995,0 -6.043,-1.922 -6.043,-6.956 v -3.738 c 0,-4.317 1.048,-6.954 6.614,-6.954 h 12.37 c 5.568,0 6.616,2.637 6.616,6.954 v 3.738 z m 50.193,0.006 c 0,5.035 -1.049,6.955 -6.046,6.955 h -13.51 c -4.997,0 -6.045,-1.92 -6.045,-6.955 v -3.738 c 0,-4.317 1.048,-6.954 6.613,-6.954 h 12.372 c 5.566,0 6.615,2.637 6.615,6.954 v 3.738 z"
         id="path9" />
      <path
         inkscape:connector-curvature="0"
         d="m 37.467,94.559 c 6.173,0 11.18,-4.537 11.18,-10.135 0,-5.597 -5.007,-10.136 -11.18,-10.136 v 0.001 H 18.145 c -1.582,0 -2.863,-1.281 -2.863,-2.863 0,-1.581 1.282,-2.862 2.863,-2.862 h 0.028 15.357 0.025 c 1.582,0 2.863,1.281 2.863,2.862 l 10.258,-0.038 c 0,-5.598 -5.004,-10.135 -11.179,-10.135 H 16.205 c -6.174,0 -11.18,4.537 -11.18,10.135 0,5.598 5.006,10.137 11.18,10.137 v -0.002 h 19.321 c 1.582,0 2.863,1.281 2.863,2.863 0,1.581 -1.281,2.862 -2.863,2.862 L 17.12,87.247 c -1.581,0 -2.863,-1.281 -2.863,-2.861 L 4,84.424 c 0,5.598 5.006,10.135 11.179,10.135 h 22.288 z"
         id="path11" />
      <polygon
         style="fill:#0081c7"
         points="277.546,94.285 245.011,94.285 245.011,61.612 255.03,61.612 255.03,85.893 277.546,85.893 "
         id="polygon13" />
      <path
         style="fill:#0081c7"
         inkscape:connector-curvature="0"
         d="m 298.454,61.613 h 13.045 l 17.958,32.672 H 318.31 l -3.112,-5.776 h -20.307 l -2.934,5.776 h -11.193 l 17.69,-32.672 z m 0.183,19.855 h 12.815 l -6.497,-12.274 -6.318,12.274 z"
         id="path15" />
      <path
         style="fill:#0081c7"
         inkscape:connector-curvature="0"
         d="m 176.473,72.704 h -0.005 v 5.265 l -3.719,-3.724 c -0.954,0.955 -1.541,2.27 -1.541,3.724 0,2.906 2.355,5.264 5.265,5.264 2.904,0 5.257,-2.357 5.257,-5.264 0,-2.907 -2.353,-5.265 -5.257,-5.265"
         id="path17" />
      <path
         style="fill:#0081c7"
         inkscape:connector-curvature="0"
         d="m 126.291,72.704 0,0 v 5.265 l -3.724,-3.724 c -0.949,0.955 -1.54,2.27 -1.54,3.724 0,2.906 2.357,5.264 5.263,5.264 2.911,0 5.262,-2.357 5.262,-5.264 0.001,-2.907 -2.35,-5.265 -5.261,-5.265"
         id="path19" />
      <path
         style="fill:#0081c7"
         inkscape:connector-curvature="0"
         d="m 370.276,75.586 c 0.724,-1.298 1.144,-2.766 1.144,-4.32 0,-5.304 -4.743,-9.627 -10.593,-9.627 h -27.809 v 32.646 h 10.07 19.258 1.968 c 6.174,0 11.179,-4.538 11.179,-10.135 0,-3.607 -2.085,-6.767 -5.217,-8.564 M 343.089,74.015 V 68.59 h 15.005 0.895 c 1.498,0 2.71,1.215 2.71,2.713 0,1.497 -1.212,2.712 -2.71,2.712 h -15.9 z m 0,12.959 v -5.725 h 19.283 c 1.581,0 2.862,1.28 2.862,2.862 0,1.581 -1.281,2.862 -2.862,2.862 h -19.283 z"
         id="path21" />
    </g>
  </g>
</svg>
